<svg width="446" height="286" viewBox="0 0 446 286" fill="none" xmlns="http://www.w3.org/2000/svg">
<g clip-path="url(#clip0_1775_52762)">
<g filter="url(#filter0_d_1775_52762)">
<path d="M83.6955 21.4667H412.275V238.548H83.6955V21.4667Z" fill="#E3ECF5"/>
<path d="M412.191 25.8755L83.6953 25.9587L83.7369 5.24862L412.274 5.20703L412.191 25.8755Z" fill="#B4B6FF"/>
<path d="M397.391 10.4883H406.288V19.8452H397.391V10.4883Z" fill="#E3ECF5"/>
</g>
<g clip-path="url(#clip1_1775_52762)">
<path d="M83.6953 21.4668H412.274V238.548H83.6953V21.4668Z" fill="#E3ECF5"/>
<path d="M412.191 25.8755L83.6953 25.9587L83.7369 5.24862L412.274 5.20703L412.191 25.8755Z" fill="#B4B6FF"/>
<path d="M397.391 10.4883H406.288V19.8452H397.391V10.4883Z" fill="#E3ECF5"/>
</g>
<g clip-path="url(#clip2_1775_52762)">
<path d="M94.1309 185.098H387.878V218.945H94.1309V185.098Z" fill="white"/>
<path d="M387.878 188.416C387.523 188.416 387.212 188.106 387.212 187.752V185.761H385.214C384.858 185.761 384.547 185.451 384.547 185.097C384.547 184.743 384.858 184.434 385.214 184.434H387.878C388.233 184.434 388.544 184.743 388.544 185.097V187.752C388.544 188.106 388.278 188.416 387.878 188.416ZM379.974 185.761H374.734C374.378 185.761 374.068 185.451 374.068 185.097C374.068 184.743 374.378 184.434 374.734 184.434H379.974C380.329 184.434 380.64 184.743 380.64 185.097C380.64 185.451 380.373 185.761 379.974 185.761ZM369.494 185.761H364.254C363.899 185.761 363.588 185.451 363.588 185.097C363.588 184.743 363.899 184.434 364.254 184.434H369.494C369.849 184.434 370.16 184.743 370.16 185.097C370.16 185.451 369.849 185.761 369.494 185.761ZM359.014 185.761H353.774C353.419 185.761 353.108 185.451 353.108 185.097C353.108 184.743 353.419 184.434 353.774 184.434H359.014C359.369 184.434 359.68 184.743 359.68 185.097C359.68 185.451 359.369 185.761 359.014 185.761ZM348.534 185.761H343.294C342.939 185.761 342.628 185.451 342.628 185.097C342.628 184.743 342.939 184.434 343.294 184.434H348.534C348.889 184.434 349.2 184.743 349.2 185.097C349.2 185.451 348.889 185.761 348.534 185.761ZM338.054 185.761H332.814C332.459 185.761 332.148 185.451 332.148 185.097C332.148 184.743 332.459 184.434 332.814 184.434H338.054C338.409 184.434 338.72 184.743 338.72 185.097C338.72 185.451 338.409 185.761 338.054 185.761ZM327.53 185.761H322.29C321.935 185.761 321.624 185.451 321.624 185.097C321.624 184.743 321.935 184.434 322.29 184.434H327.53C327.885 184.434 328.196 184.743 328.196 185.097C328.196 185.451 327.93 185.761 327.53 185.761ZM317.05 185.761H311.81C311.455 185.761 311.144 185.451 311.144 185.097C311.144 184.743 311.455 184.434 311.81 184.434H317.05C317.405 184.434 317.716 184.743 317.716 185.097C317.716 185.451 317.405 185.761 317.05 185.761ZM306.57 185.761H301.33C300.975 185.761 300.664 185.451 300.664 185.097C300.664 184.743 300.975 184.434 301.33 184.434H306.57C306.925 184.434 307.236 184.743 307.236 185.097C307.236 185.451 306.925 185.761 306.57 185.761ZM296.09 185.761H290.85C290.495 185.761 290.184 185.451 290.184 185.097C290.184 184.743 290.495 184.434 290.85 184.434H296.09C296.446 184.434 296.756 184.743 296.756 185.097C296.756 185.451 296.446 185.761 296.09 185.761ZM285.61 185.761H280.371C280.015 185.761 279.704 185.451 279.704 185.097C279.704 184.743 279.971 184.434 280.371 184.434H285.61C285.966 184.434 286.277 184.743 286.277 185.097C286.277 185.451 285.966 185.761 285.61 185.761ZM275.086 185.761H269.846C269.491 185.761 269.18 185.451 269.18 185.097C269.18 184.743 269.491 184.434 269.846 184.434H275.086C275.441 184.434 275.752 184.743 275.752 185.097C275.752 185.451 275.486 185.761 275.086 185.761ZM264.606 185.761H259.366C259.011 185.761 258.7 185.451 258.7 185.097C258.7 184.743 259.011 184.434 259.366 184.434H264.606C264.962 184.434 265.272 184.743 265.272 185.097C265.272 185.451 264.962 185.761 264.606 185.761ZM254.126 185.761H248.887C248.531 185.761 248.22 185.451 248.22 185.097C248.22 184.743 248.531 184.434 248.887 184.434H254.126C254.482 184.434 254.793 184.743 254.793 185.097C254.793 185.451 254.482 185.761 254.126 185.761ZM243.647 185.761H238.407C238.051 185.761 237.741 185.451 237.741 185.097C237.741 184.743 238.051 184.434 238.407 184.434H243.647C244.002 184.434 244.313 184.743 244.313 185.097C244.313 185.451 244.002 185.761 243.647 185.761ZM233.167 185.761H227.927C227.572 185.761 227.261 185.451 227.261 185.097C227.261 184.743 227.572 184.434 227.927 184.434H233.167C233.522 184.434 233.833 184.743 233.833 185.097C233.833 185.451 233.522 185.761 233.167 185.761ZM222.642 185.761H217.403C217.047 185.761 216.736 185.451 216.736 185.097C216.736 184.743 217.047 184.434 217.403 184.434H222.642C222.998 184.434 223.309 184.743 223.309 185.097C223.309 185.451 223.042 185.761 222.642 185.761ZM212.163 185.761H206.923C206.567 185.761 206.257 185.451 206.257 185.097C206.257 184.743 206.567 184.434 206.923 184.434H212.163C212.518 184.434 212.829 184.743 212.829 185.097C212.829 185.451 212.518 185.761 212.163 185.761ZM201.683 185.761H196.443C196.088 185.761 195.777 185.451 195.777 185.097C195.777 184.743 196.088 184.434 196.443 184.434H201.683C202.038 184.434 202.349 184.743 202.349 185.097C202.349 185.451 202.038 185.761 201.683 185.761ZM191.203 185.761H185.963C185.608 185.761 185.297 185.451 185.297 185.097C185.297 184.743 185.608 184.434 185.963 184.434H191.203C191.558 184.434 191.869 184.743 191.869 185.097C191.869 185.451 191.558 185.761 191.203 185.761ZM180.723 185.761H175.483C175.128 185.761 174.817 185.451 174.817 185.097C174.817 184.743 175.128 184.434 175.483 184.434H180.723C181.078 184.434 181.389 184.743 181.389 185.097C181.389 185.451 181.078 185.761 180.723 185.761ZM170.199 185.761H164.959C164.604 185.761 164.293 185.451 164.293 185.097C164.293 184.743 164.604 184.434 164.959 184.434H170.199C170.554 184.434 170.865 184.743 170.865 185.097C170.865 185.451 170.598 185.761 170.199 185.761ZM159.719 185.761H154.479C154.124 185.761 153.813 185.451 153.813 185.097C153.813 184.743 154.124 184.434 154.479 184.434H159.719C160.074 184.434 160.385 184.743 160.385 185.097C160.385 185.451 160.074 185.761 159.719 185.761ZM149.239 185.761H143.999C143.644 185.761 143.333 185.451 143.333 185.097C143.333 184.743 143.644 184.434 143.999 184.434H149.239C149.594 184.434 149.905 184.743 149.905 185.097C149.905 185.451 149.594 185.761 149.239 185.761ZM138.759 185.761H133.519C133.164 185.761 132.853 185.451 132.853 185.097C132.853 184.743 133.12 184.434 133.519 184.434H138.759C139.114 184.434 139.425 184.743 139.425 185.097C139.425 185.451 139.114 185.761 138.759 185.761ZM128.279 185.761H122.995C122.64 185.761 122.329 185.451 122.329 185.097C122.329 184.743 122.64 184.434 122.995 184.434H128.235C128.59 184.434 128.901 184.743 128.901 185.097C128.901 185.451 128.635 185.761 128.279 185.761ZM117.755 185.761H112.515C112.16 185.761 111.849 185.451 111.849 185.097C111.849 184.743 112.16 184.434 112.515 184.434H117.755C118.11 184.434 118.421 184.743 118.421 185.097C118.421 185.451 118.155 185.761 117.755 185.761ZM107.275 185.761H102.035C101.68 185.761 101.369 185.451 101.369 185.097C101.369 184.743 101.68 184.434 102.035 184.434H107.275C107.63 184.434 107.941 184.743 107.941 185.097C107.941 185.451 107.63 185.761 107.275 185.761ZM94.1309 188.416C93.7757 188.416 93.4648 188.106 93.4648 187.752V185.097C93.4648 184.743 93.7757 184.434 94.1309 184.434H96.7953C97.1506 184.434 97.4614 184.743 97.4614 185.097C97.4614 185.451 97.1506 185.761 96.7953 185.761H94.797V187.752C94.797 188.106 94.4862 188.416 94.1309 188.416ZM94.1309 211.246C93.7757 211.246 93.4648 210.937 93.4648 210.583V204.875C93.4648 204.521 93.7757 204.211 94.1309 204.211C94.4862 204.211 94.797 204.521 94.797 204.875V210.583C94.797 210.937 94.4862 211.246 94.1309 211.246ZM94.1309 199.831C93.7757 199.831 93.4648 199.521 93.4648 199.167V193.46C93.4648 193.106 93.7757 192.796 94.1309 192.796C94.4862 192.796 94.797 193.106 94.797 193.46V199.167C94.797 199.521 94.4862 199.831 94.1309 199.831ZM96.7953 219.609H94.1309C93.7757 219.609 93.4648 219.299 93.4648 218.945V216.29C93.4648 215.936 93.7757 215.627 94.1309 215.627C94.4862 215.627 94.797 215.936 94.797 216.29V218.281H96.7953C97.1506 218.281 97.4614 218.591 97.4614 218.945C97.4614 219.299 97.1506 219.609 96.7953 219.609ZM379.974 219.609H374.734C374.378 219.609 374.068 219.299 374.068 218.945C374.068 218.591 374.378 218.281 374.734 218.281H379.974C380.329 218.281 380.64 218.591 380.64 218.945C380.64 219.299 380.373 219.609 379.974 219.609ZM369.494 219.609H364.254C363.899 219.609 363.588 219.299 363.588 218.945C363.588 218.591 363.899 218.281 364.254 218.281H369.494C369.849 218.281 370.16 218.591 370.16 218.945C370.16 219.299 369.849 219.609 369.494 219.609ZM359.014 219.609H353.774C353.419 219.609 353.108 219.299 353.108 218.945C353.108 218.591 353.419 218.281 353.774 218.281H359.014C359.369 218.281 359.68 218.591 359.68 218.945C359.68 219.299 359.369 219.609 359.014 219.609ZM348.534 219.609H343.294C342.939 219.609 342.628 219.299 342.628 218.945C342.628 218.591 342.939 218.281 343.294 218.281H348.534C348.889 218.281 349.2 218.591 349.2 218.945C349.2 219.299 348.889 219.609 348.534 219.609ZM338.054 219.609H332.814C332.459 219.609 332.148 219.299 332.148 218.945C332.148 218.591 332.459 218.281 332.814 218.281H338.054C338.409 218.281 338.72 218.591 338.72 218.945C338.72 219.299 338.409 219.609 338.054 219.609ZM327.53 219.609H322.29C321.935 219.609 321.624 219.299 321.624 218.945C321.624 218.591 321.935 218.281 322.29 218.281H327.53C327.885 218.281 328.196 218.591 328.196 218.945C328.196 219.299 327.93 219.609 327.53 219.609ZM317.05 219.609H311.81C311.455 219.609 311.144 219.299 311.144 218.945C311.144 218.591 311.455 218.281 311.81 218.281H317.05C317.405 218.281 317.716 218.591 317.716 218.945C317.716 219.299 317.405 219.609 317.05 219.609ZM306.57 219.609H301.33C300.975 219.609 300.664 219.299 300.664 218.945C300.664 218.591 300.975 218.281 301.33 218.281H306.57C306.925 218.281 307.236 218.591 307.236 218.945C307.236 219.299 306.925 219.609 306.57 219.609ZM296.09 219.609H290.85C290.495 219.609 290.184 219.299 290.184 218.945C290.184 218.591 290.495 218.281 290.85 218.281H296.09C296.446 218.281 296.756 218.591 296.756 218.945C296.756 219.299 296.446 219.609 296.09 219.609ZM285.61 219.609H280.371C280.015 219.609 279.704 219.299 279.704 218.945C279.704 218.591 280.015 218.281 280.371 218.281H285.61C285.966 218.281 286.277 218.591 286.277 218.945C286.277 219.299 285.966 219.609 285.61 219.609ZM275.086 219.609H269.846C269.491 219.609 269.18 219.299 269.18 218.945C269.18 218.591 269.491 218.281 269.846 218.281H275.086C275.441 218.281 275.752 218.591 275.752 218.945C275.752 219.299 275.486 219.609 275.086 219.609ZM264.606 219.609H259.366C259.011 219.609 258.7 219.299 258.7 218.945C258.7 218.591 259.011 218.281 259.366 218.281H264.606C264.962 218.281 265.272 218.591 265.272 218.945C265.272 219.299 264.962 219.609 264.606 219.609ZM254.126 219.609H248.887C248.531 219.609 248.22 219.299 248.22 218.945C248.22 218.591 248.531 218.281 248.887 218.281H254.126C254.482 218.281 254.793 218.591 254.793 218.945C254.793 219.299 254.482 219.609 254.126 219.609ZM243.647 219.609H238.407C238.051 219.609 237.741 219.299 237.741 218.945C237.741 218.591 238.051 218.281 238.407 218.281H243.647C244.002 218.281 244.313 218.591 244.313 218.945C244.313 219.299 244.002 219.609 243.647 219.609ZM233.167 219.609H227.927C227.572 219.609 227.261 219.299 227.261 218.945C227.261 218.591 227.572 218.281 227.927 218.281H233.167C233.522 218.281 233.833 218.591 233.833 218.945C233.833 219.299 233.522 219.609 233.167 219.609ZM222.642 219.609H217.403C217.047 219.609 216.736 219.299 216.736 218.945C216.736 218.591 217.047 218.281 217.403 218.281H222.642C222.998 218.281 223.309 218.591 223.309 218.945C223.309 219.299 223.042 219.609 222.642 219.609ZM212.163 219.609H206.923C206.567 219.609 206.257 219.299 206.257 218.945C206.257 218.591 206.567 218.281 206.923 218.281H212.163C212.518 218.281 212.829 218.591 212.829 218.945C212.829 219.299 212.518 219.609 212.163 219.609ZM201.683 219.609H196.443C196.088 219.609 195.777 219.299 195.777 218.945C195.777 218.591 196.088 218.281 196.443 218.281H201.683C202.038 218.281 202.349 218.591 202.349 218.945C202.349 219.299 202.038 219.609 201.683 219.609ZM191.203 219.609H185.963C185.608 219.609 185.297 219.299 185.297 218.945C185.297 218.591 185.608 218.281 185.963 218.281H191.203C191.558 218.281 191.869 218.591 191.869 218.945C191.869 219.299 191.558 219.609 191.203 219.609ZM180.723 219.609H175.483C175.128 219.609 174.817 219.299 174.817 218.945C174.817 218.591 175.128 218.281 175.483 218.281H180.723C181.078 218.281 181.389 218.591 181.389 218.945C181.389 219.299 181.078 219.609 180.723 219.609ZM170.199 219.609H164.959C164.604 219.609 164.293 219.299 164.293 218.945C164.293 218.591 164.604 218.281 164.959 218.281H170.199C170.554 218.281 170.865 218.591 170.865 218.945C170.865 219.299 170.598 219.609 170.199 219.609ZM159.719 219.609H154.479C154.124 219.609 153.813 219.299 153.813 218.945C153.813 218.591 154.124 218.281 154.479 218.281H159.719C160.074 218.281 160.385 218.591 160.385 218.945C160.385 219.299 160.074 219.609 159.719 219.609ZM149.239 219.609H143.999C143.644 219.609 143.333 219.299 143.333 218.945C143.333 218.591 143.644 218.281 143.999 218.281H149.239C149.594 218.281 149.905 218.591 149.905 218.945C149.905 219.299 149.594 219.609 149.239 219.609ZM138.759 219.609H133.519C133.164 219.609 132.853 219.299 132.853 218.945C132.853 218.591 133.164 218.281 133.519 218.281H138.759C139.114 218.281 139.425 218.591 139.425 218.945C139.425 219.299 139.114 219.609 138.759 219.609ZM128.279 219.609H122.995C122.64 219.609 122.329 219.299 122.329 218.945C122.329 218.591 122.64 218.281 122.995 218.281H128.235C128.59 218.281 128.901 218.591 128.901 218.945C128.901 219.299 128.635 219.609 128.279 219.609ZM117.755 219.609H112.515C112.16 219.609 111.849 219.299 111.849 218.945C111.849 218.591 112.16 218.281 112.515 218.281H117.755C118.11 218.281 118.421 218.591 118.421 218.945C118.421 219.299 118.155 219.609 117.755 219.609ZM107.275 219.609H102.035C101.68 219.609 101.369 219.299 101.369 218.945C101.369 218.591 101.68 218.281 102.035 218.281H107.275C107.63 218.281 107.941 218.591 107.941 218.945C107.941 219.299 107.63 219.609 107.275 219.609ZM387.878 219.609H385.214C384.858 219.609 384.547 219.299 384.547 218.945C384.547 218.591 384.858 218.281 385.214 218.281H387.212V216.29C387.212 215.936 387.523 215.627 387.878 215.627C388.233 215.627 388.544 215.936 388.544 216.29V218.945C388.544 219.299 388.278 219.609 387.878 219.609ZM387.878 211.246C387.523 211.246 387.212 210.937 387.212 210.583V204.875C387.212 204.521 387.523 204.211 387.878 204.211C388.233 204.211 388.544 204.521 388.544 204.875V210.583C388.544 210.937 388.278 211.246 387.878 211.246ZM387.878 199.831C387.523 199.831 387.212 199.521 387.212 199.167V193.46C387.212 193.106 387.523 192.796 387.878 192.796C388.233 192.796 388.544 193.106 388.544 193.46V199.167C388.544 199.521 388.278 199.831 387.878 199.831Z" fill="#B4B6FF"/>
<path d="M168.53 193.874C169.696 193.874 170.73 194.112 171.632 194.589C172.534 195.058 173.26 195.696 173.81 196.503C174.367 197.31 174.697 198.208 174.8 199.198H171.973C171.863 198.611 171.658 198.087 171.357 197.625C171.064 197.163 170.675 196.796 170.191 196.525C169.707 196.254 169.128 196.118 168.453 196.118C167.61 196.118 166.891 196.32 166.297 196.723C165.71 197.119 165.259 197.75 164.944 198.615C164.636 199.48 164.482 200.602 164.482 201.981C164.482 204.071 164.827 205.593 165.516 206.546C166.205 207.499 167.184 207.976 168.453 207.976C169.128 207.976 169.707 207.829 170.191 207.536C170.675 207.235 171.064 206.839 171.357 206.348C171.658 205.849 171.863 205.307 171.973 204.72H174.8C174.712 205.439 174.529 206.128 174.25 206.788C173.979 207.448 173.594 208.038 173.095 208.559C172.596 209.072 171.969 209.479 171.214 209.78C170.466 210.073 169.571 210.22 168.53 210.22C167.071 210.22 165.817 209.886 164.768 209.219C163.727 208.544 162.924 207.591 162.359 206.359C161.802 205.12 161.523 203.649 161.523 201.948C161.523 200.254 161.802 198.806 162.359 197.603C162.916 196.4 163.716 195.48 164.757 194.842C165.806 194.197 167.063 193.874 168.53 193.874ZM184.163 210.22C182.697 210.22 181.428 209.897 180.357 209.252C179.294 208.607 178.469 207.675 177.882 206.458C177.303 205.241 177.013 203.781 177.013 202.08C177.013 200.364 177.307 198.894 177.893 197.669C178.48 196.444 179.309 195.506 180.379 194.853C181.457 194.2 182.719 193.874 184.163 193.874C185.608 193.874 186.858 194.2 187.914 194.853C188.978 195.506 189.799 196.444 190.378 197.669C190.958 198.894 191.247 200.364 191.247 202.08C191.247 203.781 190.961 205.241 190.389 206.458C189.817 207.668 189 208.599 187.936 209.252C186.873 209.897 185.615 210.22 184.163 210.22ZM184.163 207.976C185.029 207.976 185.773 207.774 186.396 207.371C187.02 206.96 187.496 206.326 187.826 205.468C188.164 204.603 188.332 203.484 188.332 202.113C188.332 200.72 188.164 199.583 187.826 198.703C187.489 197.816 187.009 197.163 186.385 196.745C185.762 196.327 185.021 196.118 184.163 196.118C183.298 196.118 182.55 196.331 181.919 196.756C181.296 197.174 180.812 197.827 180.467 198.714C180.123 199.594 179.95 200.727 179.95 202.113C179.95 203.484 180.123 204.603 180.467 205.468C180.812 206.326 181.296 206.96 181.919 207.371C182.55 207.774 183.298 207.976 184.163 207.976ZM194.284 210V194.094H198.112L202.281 206.249L206.494 194.094H210.3V210H207.583V197.526L203.392 210H201.159L197.001 197.603V210H194.284ZM214.157 194.094H216.83V210H214.157V194.094ZM231.095 194.094H233.768V210H231.359L223.362 198.329V210H220.689V194.094H223.307L231.095 205.457V194.094ZM243.778 210.22C242.356 210.22 241.12 209.894 240.071 209.241C239.023 208.588 238.216 207.657 237.651 206.447C237.087 205.23 236.804 203.778 236.804 202.091C236.804 200.39 237.098 198.923 237.684 197.691C238.271 196.459 239.096 195.517 240.159 194.864C241.23 194.204 242.484 193.874 243.921 193.874C244.801 193.874 245.612 194.021 246.352 194.314C247.1 194.607 247.753 195.003 248.31 195.502C248.875 196.001 249.319 196.569 249.641 197.207C249.964 197.845 250.144 198.509 250.18 199.198H247.353C247.251 198.655 247.042 198.157 246.726 197.702C246.418 197.24 246.019 196.87 245.527 196.591C245.043 196.312 244.49 196.173 243.866 196.173C243.067 196.173 242.352 196.375 241.721 196.778C241.098 197.181 240.607 197.816 240.247 198.681C239.895 199.539 239.719 200.654 239.719 202.025C239.719 203.11 239.829 204.027 240.049 204.775C240.277 205.516 240.585 206.113 240.973 206.568C241.369 207.015 241.824 207.342 242.337 207.547C242.851 207.745 243.393 207.844 243.965 207.844C244.523 207.844 245.014 207.749 245.439 207.558C245.865 207.367 246.224 207.118 246.517 206.81C246.818 206.502 247.049 206.172 247.21 205.82C247.379 205.461 247.478 205.112 247.507 204.775L247.606 203.609H244.053V201.717L250.4 201.739V210H248.508V207.767C248.237 208.17 247.892 208.559 247.474 208.933C247.064 209.307 246.558 209.615 245.956 209.857C245.362 210.099 244.636 210.22 243.778 210.22ZM264.629 210.22C263.859 210.22 263.108 210.125 262.374 209.934C261.641 209.736 260.974 209.446 260.372 209.065C259.778 208.676 259.283 208.196 258.887 207.624C258.491 207.045 258.249 206.37 258.161 205.6H260.933C261.051 206.135 261.282 206.586 261.626 206.953C261.971 207.32 262.4 207.598 262.913 207.789C263.434 207.98 264.002 208.075 264.618 208.075C265.278 208.075 265.872 207.987 266.4 207.811C266.936 207.635 267.357 207.378 267.665 207.041C267.981 206.704 268.138 206.289 268.138 205.798C268.138 205.365 268.025 204.999 267.797 204.698C267.57 204.397 267.251 204.152 266.84 203.961C266.437 203.763 265.964 203.605 265.421 203.488L262.495 202.85C261.315 202.608 260.38 202.139 259.69 201.442C259.001 200.745 258.649 199.818 258.634 198.659C258.627 197.698 258.88 196.862 259.393 196.151C259.914 195.432 260.622 194.879 261.516 194.49C262.411 194.094 263.423 193.896 264.552 193.896C265.872 193.896 266.983 194.112 267.885 194.545C268.795 194.97 269.48 195.542 269.942 196.261C270.412 196.98 270.65 197.768 270.657 198.626H267.951C267.885 197.995 267.695 197.493 267.379 197.119C267.071 196.745 266.675 196.477 266.191 196.316C265.707 196.155 265.172 196.074 264.585 196.074C264.145 196.074 263.735 196.125 263.353 196.228C262.972 196.331 262.638 196.481 262.352 196.679C262.066 196.877 261.843 197.119 261.681 197.405C261.527 197.684 261.45 198.003 261.45 198.362C261.45 198.875 261.619 199.293 261.956 199.616C262.301 199.931 262.943 200.199 263.881 200.419L266.741 201.057C267.629 201.233 268.344 201.497 268.886 201.849C269.429 202.201 269.843 202.604 270.129 203.059C270.415 203.506 270.606 203.965 270.701 204.434C270.797 204.903 270.844 205.351 270.844 205.776C270.844 206.605 270.588 207.356 270.074 208.031C269.568 208.706 268.85 209.241 267.918 209.637C266.994 210.026 265.898 210.22 264.629 210.22ZM280.113 210.22C278.646 210.22 277.377 209.897 276.307 209.252C275.243 208.607 274.418 207.675 273.832 206.458C273.252 205.241 272.963 203.781 272.963 202.08C272.963 200.364 273.256 198.894 273.843 197.669C274.429 196.444 275.258 195.506 276.329 194.853C277.407 194.2 278.668 193.874 280.113 193.874C281.557 193.874 282.808 194.2 283.864 194.853C284.927 195.506 285.748 196.444 286.328 197.669C286.907 198.894 287.197 200.364 287.197 202.08C287.197 203.781 286.911 205.241 286.339 206.458C285.767 207.668 284.949 208.599 283.886 209.252C282.822 209.897 281.565 210.22 280.113 210.22ZM280.113 207.976C280.978 207.976 281.722 207.774 282.346 207.371C282.969 206.96 283.446 206.326 283.776 205.468C284.113 204.603 284.282 203.484 284.282 202.113C284.282 200.72 284.113 199.583 283.776 198.703C283.438 197.816 282.958 197.163 282.335 196.745C281.711 196.327 280.971 196.118 280.113 196.118C279.247 196.118 278.499 196.331 277.869 196.756C277.245 197.174 276.761 197.827 276.417 198.714C276.072 199.594 275.9 200.727 275.9 202.113C275.9 203.484 276.072 204.603 276.417 205.468C276.761 206.326 277.245 206.96 277.869 207.371C278.499 207.774 279.247 207.976 280.113 207.976ZM296.462 210.22C294.996 210.22 293.727 209.897 292.656 209.252C291.593 208.607 290.768 207.675 290.181 206.458C289.602 205.241 289.312 203.781 289.312 202.08C289.312 200.364 289.606 198.894 290.192 197.669C290.779 196.444 291.608 195.506 292.678 194.853C293.756 194.2 295.018 193.874 296.462 193.874C297.907 193.874 299.157 194.2 300.213 194.853C301.277 195.506 302.098 196.444 302.677 197.669C303.257 198.894 303.546 200.364 303.546 202.08C303.546 203.781 303.26 205.241 302.688 206.458C302.116 207.668 301.299 208.599 300.235 209.252C299.172 209.897 297.914 210.22 296.462 210.22ZM296.462 207.976C297.328 207.976 298.072 207.774 298.695 207.371C299.319 206.96 299.795 206.326 300.125 205.468C300.463 204.603 300.631 203.484 300.631 202.113C300.631 200.72 300.463 199.583 300.125 198.703C299.788 197.816 299.308 197.163 298.684 196.745C298.061 196.327 297.32 196.118 296.462 196.118C295.597 196.118 294.849 196.331 294.218 196.756C293.595 197.174 293.111 197.827 292.766 198.714C292.422 199.594 292.249 200.727 292.249 202.113C292.249 203.484 292.422 204.603 292.766 205.468C293.111 206.326 293.595 206.96 294.218 207.371C294.849 207.774 295.597 207.976 296.462 207.976ZM316.989 194.094H319.662V210H317.253L309.256 198.329V210H306.583V194.094H309.201L316.989 205.457V194.094Z" fill="#4F52E6"/>
</g>
<g clip-path="url(#clip3_1775_52762)">
<path d="M200.945 126.901H389.383V131.293H200.945V126.901ZM200.945 154.078H338.826V158.471H200.945V154.078ZM201.335 99.7237H278.26V104.116H201.335V99.7237ZM200.945 45.4082H277.87V49.8005H200.945V45.4082ZM200.945 72.5856H277.87V76.9779H200.945V72.5856Z" fill="white"/>
</g>
<g clip-path="url(#clip4_1775_52762)">
<path d="M295.871 45.2227H388.727V106.544H295.871V45.2227Z" fill="white"/>
<path d="M388.726 48.0314C388.424 48.0314 388.161 47.7694 388.161 47.4699V45.7852H386.464C386.162 45.7852 385.899 45.5232 385.899 45.2237C385.899 44.9242 386.162 44.6621 386.464 44.6621H388.726C389.028 44.6621 389.292 44.9242 389.292 45.2237V47.4699C389.292 47.7694 389.028 48.0314 388.726 48.0314ZM381.827 45.7852H377.19C376.888 45.7852 376.624 45.5232 376.624 45.2237C376.624 44.9242 376.888 44.6621 377.19 44.6621H381.827C382.128 44.6621 382.392 44.9242 382.392 45.2237C382.392 45.5232 382.128 45.7852 381.827 45.7852ZM372.515 45.7852H367.878C367.576 45.7852 367.312 45.5232 367.312 45.2237C367.312 44.9242 367.576 44.6621 367.878 44.6621H372.515C372.817 44.6621 373.08 44.9242 373.08 45.2237C373.08 45.5232 372.817 45.7852 372.515 45.7852ZM363.203 45.7852H358.566C358.264 45.7852 358 45.5232 358 45.2237C358 44.9242 358.264 44.6621 358.566 44.6621H363.203C363.505 44.6621 363.768 44.9242 363.768 45.2237C363.768 45.5232 363.542 45.7852 363.203 45.7852ZM353.929 45.7852H349.292C348.99 45.7852 348.726 45.5232 348.726 45.2237C348.726 44.9242 348.99 44.6621 349.292 44.6621H353.929C354.23 44.6621 354.494 44.9242 354.494 45.2237C354.494 45.5232 354.23 45.7852 353.929 45.7852ZM344.617 45.7852H339.98C339.678 45.7852 339.414 45.5232 339.414 45.2237C339.414 44.9242 339.678 44.6621 339.98 44.6621H344.617C344.918 44.6621 345.182 44.9242 345.182 45.2237C345.182 45.5232 344.918 45.7852 344.617 45.7852ZM335.342 45.7852H330.668C330.366 45.7852 330.102 45.5232 330.102 45.2237C330.102 44.9242 330.366 44.6621 330.668 44.6621H335.305C335.606 44.6621 335.87 44.9242 335.87 45.2237C335.87 45.5232 335.644 45.7852 335.342 45.7852ZM326.03 45.7852H321.393C321.092 45.7852 320.828 45.5232 320.828 45.2237C320.828 44.9242 321.092 44.6621 321.393 44.6621H326.03C326.332 44.6621 326.596 44.9242 326.596 45.2237C326.596 45.5232 326.332 45.7852 326.03 45.7852ZM316.718 45.7852H312.081C311.78 45.7852 311.516 45.5232 311.516 45.2237C311.516 44.9242 311.78 44.6621 312.081 44.6621H316.718C317.02 44.6621 317.284 44.9242 317.284 45.2237C317.284 45.5232 317.058 45.7852 316.718 45.7852ZM307.444 45.7852H302.769C302.468 45.7852 302.204 45.5232 302.204 45.2237C302.204 44.9242 302.468 44.6621 302.769 44.6621H307.406C307.708 44.6621 307.972 44.9242 307.972 45.2237C307.972 45.5232 307.746 45.7852 307.444 45.7852ZM295.87 48.0314C295.569 48.0314 295.305 47.7694 295.305 47.4699V45.2237C295.305 44.9242 295.569 44.6621 295.87 44.6621H298.132C298.434 44.6621 298.698 44.9242 298.698 45.2237C298.698 45.5232 298.434 45.7852 298.132 45.7852H296.436V47.4699C296.436 47.7694 296.172 48.0314 295.87 48.0314ZM295.87 100.48C295.569 100.48 295.305 100.218 295.305 99.9187V95.5386C295.305 95.2391 295.569 94.977 295.87 94.977C296.172 94.977 296.436 95.2391 296.436 95.5386V99.9187C296.436 100.256 296.172 100.48 295.87 100.48ZM295.87 91.7575C295.569 91.7575 295.305 91.4954 295.305 91.1959V86.8158C295.305 86.5163 295.569 86.2543 295.87 86.2543C296.172 86.2543 296.436 86.5163 296.436 86.8158V91.1959C296.436 91.4954 296.172 91.7575 295.87 91.7575ZM295.87 82.9973C295.569 82.9973 295.305 82.7352 295.305 82.4357V78.0556C295.305 77.7562 295.569 77.4941 295.87 77.4941C296.172 77.4941 296.436 77.7562 296.436 78.0556V82.4357C296.436 82.7727 296.172 82.9973 295.87 82.9973ZM295.87 74.2745C295.569 74.2745 295.305 74.0125 295.305 73.713V69.3329C295.305 69.0334 295.569 68.7713 295.87 68.7713C296.172 68.7713 296.436 69.0334 296.436 69.3329V73.713C296.436 74.0125 296.172 74.2745 295.87 74.2745ZM295.87 65.5144C295.569 65.5144 295.305 65.2523 295.305 64.9528V60.5727C295.305 60.2732 295.569 60.0112 295.87 60.0112C296.172 60.0112 296.436 60.2732 296.436 60.5727V64.9528C296.436 65.2523 296.172 65.5144 295.87 65.5144ZM295.87 56.7542C295.569 56.7542 295.305 56.4921 295.305 56.1926V51.85C295.305 51.5505 295.569 51.2884 295.87 51.2884C296.172 51.2884 296.436 51.513 296.436 51.85V56.2301C296.436 56.5295 296.172 56.7542 295.87 56.7542ZM298.132 107.107H295.87C295.569 107.107 295.305 106.844 295.305 106.545V104.299C295.305 103.999 295.569 103.737 295.87 103.737C296.172 103.737 296.436 103.999 296.436 104.299V105.983H298.132C298.434 105.983 298.698 106.245 298.698 106.545C298.698 106.844 298.434 107.107 298.132 107.107ZM381.827 107.107H377.19C376.888 107.107 376.624 106.844 376.624 106.545C376.624 106.245 376.888 105.983 377.19 105.983H381.827C382.128 105.983 382.392 106.245 382.392 106.545C382.392 106.844 382.128 107.107 381.827 107.107ZM372.515 107.107H367.878C367.576 107.107 367.312 106.844 367.312 106.545C367.312 106.245 367.576 105.983 367.878 105.983H372.515C372.817 105.983 373.08 106.245 373.08 106.545C373.08 106.844 372.817 107.107 372.515 107.107ZM363.203 107.107H358.566C358.264 107.107 358 106.844 358 106.545C358 106.245 358.264 105.983 358.566 105.983H363.203C363.505 105.983 363.768 106.245 363.768 106.545C363.768 106.844 363.542 107.107 363.203 107.107ZM353.929 107.107H349.292C348.99 107.107 348.726 106.844 348.726 106.545C348.726 106.245 348.99 105.983 349.292 105.983H353.929C354.23 105.983 354.494 106.245 354.494 106.545C354.494 106.844 354.23 107.107 353.929 107.107ZM344.617 107.107H339.98C339.678 107.107 339.414 106.844 339.414 106.545C339.414 106.245 339.678 105.983 339.98 105.983H344.617C344.918 105.983 345.182 106.245 345.182 106.545C345.182 106.844 344.918 107.107 344.617 107.107ZM335.342 107.107H330.668C330.366 107.107 330.102 106.844 330.102 106.545C330.102 106.245 330.366 105.983 330.668 105.983H335.305C335.606 105.983 335.87 106.245 335.87 106.545C335.87 106.844 335.644 107.107 335.342 107.107ZM326.03 107.107H321.393C321.092 107.107 320.828 106.844 320.828 106.545C320.828 106.245 321.092 105.983 321.393 105.983H326.03C326.332 105.983 326.596 106.245 326.596 106.545C326.596 106.844 326.332 107.107 326.03 107.107ZM316.718 107.107H312.081C311.78 107.107 311.516 106.844 311.516 106.545C311.516 106.245 311.78 105.983 312.081 105.983H316.718C317.02 105.983 317.284 106.245 317.284 106.545C317.284 106.844 317.058 107.107 316.718 107.107ZM307.444 107.107H302.769C302.468 107.107 302.204 106.844 302.204 106.545C302.204 106.245 302.468 105.983 302.769 105.983H307.406C307.708 105.983 307.972 106.245 307.972 106.545C307.972 106.844 307.746 107.107 307.444 107.107ZM388.726 107.107H386.464C386.162 107.107 385.899 106.844 385.899 106.545C385.899 106.245 386.162 105.983 386.464 105.983H388.161V104.299C388.161 103.999 388.424 103.737 388.726 103.737C389.028 103.737 389.292 103.999 389.292 104.299V106.545C389.292 106.882 389.028 107.107 388.726 107.107ZM388.726 100.48C388.424 100.48 388.161 100.218 388.161 99.9187V95.5386C388.161 95.2391 388.424 94.977 388.726 94.977C389.028 94.977 389.292 95.2391 389.292 95.5386V99.9187C389.292 100.256 389.028 100.48 388.726 100.48ZM388.726 91.7575C388.424 91.7575 388.161 91.4954 388.161 91.1959V86.8158C388.161 86.5163 388.424 86.2543 388.726 86.2543C389.028 86.2543 389.292 86.5163 389.292 86.8158V91.1959C389.292 91.4954 389.028 91.7575 388.726 91.7575ZM388.726 82.9973C388.424 82.9973 388.161 82.7352 388.161 82.4357V78.0556C388.161 77.7562 388.424 77.4941 388.726 77.4941C389.028 77.4941 389.292 77.7562 389.292 78.0556V82.4357C389.292 82.7727 389.028 82.9973 388.726 82.9973ZM388.726 74.2745C388.424 74.2745 388.161 74.0125 388.161 73.713V69.3329C388.161 69.0334 388.424 68.7713 388.726 68.7713C389.028 68.7713 389.292 69.0334 389.292 69.3329V73.713C389.292 74.0125 389.028 74.2745 388.726 74.2745ZM388.726 65.5144C388.424 65.5144 388.161 65.2523 388.161 64.9528V60.5727C388.161 60.2732 388.424 60.0112 388.726 60.0112C389.028 60.0112 389.292 60.2732 389.292 60.5727V64.9528C389.292 65.2523 389.028 65.5144 388.726 65.5144ZM388.726 56.7542C388.424 56.7542 388.161 56.4921 388.161 56.1926V51.85C388.161 51.5505 388.424 51.2884 388.726 51.2884C389.028 51.2884 389.292 51.5505 389.292 51.85V56.2301C389.292 56.5295 389.028 56.7542 388.726 56.7542Z" fill="#C4C5FF"/>
<path d="M389.669 52.3354C394.312 52.3354 398.076 48.5977 398.076 43.9871C398.076 39.3764 394.312 35.6387 389.669 35.6387C385.026 35.6387 381.262 39.3764 381.262 43.9871C381.262 48.5977 385.026 52.3354 389.669 52.3354Z" fill="#FFBB30"/>
<path d="M392.345 43.4259H389.97V41.0674C389.97 40.7679 389.706 40.5059 389.405 40.5059C389.103 40.5059 388.839 40.7679 388.839 41.0674V43.4259H386.464C386.162 43.4259 385.898 43.688 385.898 43.9875C385.898 44.287 386.162 44.549 386.464 44.549H388.839V46.8701C388.839 47.1696 389.103 47.4316 389.405 47.4316C389.706 47.4316 389.97 47.1696 389.97 46.8701V44.5116H392.345C392.647 44.5116 392.911 44.2495 392.911 43.95C392.911 43.6505 392.647 43.4259 392.345 43.4259Z" fill="#2A2A64"/>
<path d="M318.038 66.8606C321.494 66.8606 324.296 64.0783 324.296 60.6461C324.296 57.214 321.494 54.4316 318.038 54.4316C314.581 54.4316 311.779 57.214 311.779 60.6461C311.779 64.0783 314.581 66.8606 318.038 66.8606Z" fill="#C4C5FF"/>
<path d="M328.33 98.2714L355.927 66.5625L380.432 98.0842L328.33 98.2714Z" fill="#9496FF"/>
<path d="M303.562 98.3458L327.54 75.9961L348.878 98.1961L303.562 98.3458Z" fill="#C4C5FF"/>
</g>
<g filter="url(#filter1_d_1775_52762)">
<path d="M126.397 57.8992C126.268 57.8992 126.183 57.8133 126.183 57.6845C126.183 57.5557 126.268 57.4698 126.397 57.4698C126.482 57.4698 133.586 56.6969 135.725 50.3851C135.768 50.2563 135.897 50.2134 135.982 50.2563C136.111 50.2993 136.153 50.4281 136.111 50.514C133.885 57.1263 126.482 57.8992 126.397 57.8992Z" fill="#2A2A64"/>
<path d="M229.154 78.8443L60.3749 238.081L55.0399 232.389L223.819 73.1512L229.154 78.8443ZM191.091 38.2341L22.3115 197.471L16.9766 191.778L185.756 32.541L191.091 38.2341Z" fill="#696CFF"/>
<path d="M73.8207 225.399L31.1113 179.824L37.5645 173.736L80.2738 219.311L73.8207 225.399ZM99.3633 201.267L56.6539 155.692L63.1071 149.604L105.816 195.179L99.3633 201.267ZM148.686 154.207L105.977 108.632L112.43 102.544L155.139 148.119L148.686 154.207ZM124.966 177.136L82.2573 131.562L88.7104 125.473L131.419 171.048L124.966 177.136ZM173.444 131.11L130.735 85.5354L137.188 79.4469L179.897 125.022L173.444 131.11ZM199.016 107.009L156.306 61.4342L162.76 55.3457L205.469 100.921L199.016 107.009Z" fill="#696CFF"/>
<path d="M112.532 259.318L106.07 277.438H151.73C151.73 277.438 149.377 272.887 141.588 269.537C133.8 266.188 126.482 259.318 126.482 259.318H112.532Z" fill="url(#paint0_linear_1775_52762)"/>
<path d="M77.9129 259.275L71.4512 277.395H117.111C117.111 277.395 114.757 272.844 106.969 269.494C99.1381 266.145 91.8633 259.275 91.8633 259.275H77.9129Z" fill="#696CFF"/>
<path d="M131.361 189.459C130.59 179.326 127.937 170.095 126.311 160.863C126.097 159.575 125.798 158.33 125.626 157.042C124.813 150.902 122.246 131.021 121.69 128.359L109.793 129.733L104.059 130.635C104.059 130.635 99.9936 131.408 96.9981 132.997C95.8427 138.793 95.5431 145.964 97.4688 154.337C102.989 178.596 103.417 175.161 102.561 192.207C101.705 209.211 104.487 203.457 105.3 221.319C106.156 239.181 92.8044 237.979 105.642 259.19L130.462 259.276C130.462 259.318 132.516 204.788 131.361 189.459Z" fill="url(#paint1_linear_1775_52762)"/>
<path d="M122.032 164.471C122.032 164.471 122.331 131.194 123.487 127.029L89.2098 129.047L87.2413 132.869C86.8562 132.783 87.5837 132.955 87.2413 132.869C84.3742 143.603 84.7166 154.981 88.3112 165.544C97.0837 191.993 91.7346 191.865 88.2256 198.735C84.3314 206.292 84.3314 214.149 82.7053 220.547C80.9508 227.46 76.1152 229.821 72.5206 241.114C69.5251 250.603 69.0116 259.362 69.0116 259.362L97.2121 259.276C97.2121 259.276 119.422 203.844 120.577 192.294C121.604 181.903 121.133 177.867 122.032 164.471Z" fill="#2A2A64"/>
<path d="M99.6518 140.768C99.6946 140.811 99.7802 140.768 99.7802 140.726C99.823 140.683 99.7802 140.597 99.7374 140.597C99.6946 140.554 99.609 140.597 99.609 140.64C99.5662 140.683 99.609 140.768 99.6518 140.768ZM99.1383 137.978C99.1811 137.978 99.2667 137.978 99.2667 137.935C99.2667 137.892 99.2667 137.806 99.2239 137.806C99.1811 137.763 99.1383 137.806 99.0955 137.849C99.0527 137.892 99.0955 137.935 99.1383 137.978ZM89.5099 149.442C89.5527 149.485 89.6383 149.442 89.6383 149.399C89.6811 149.356 89.6383 149.27 89.5955 149.27C89.5527 149.227 89.4671 149.27 89.4671 149.313C89.4243 149.356 89.4671 149.442 89.5099 149.442ZM108.125 143.345C108.125 143.388 108.21 143.431 108.253 143.388C108.296 143.388 108.339 143.302 108.296 143.259C108.296 143.216 108.21 143.173 108.168 143.216C108.125 143.216 108.082 143.302 108.125 143.345ZM96.0572 136.646C96.1 136.689 96.1428 136.689 96.1856 136.646C96.2284 136.604 96.2284 136.561 96.1856 136.518C96.1428 136.475 96.1 136.475 96.0572 136.518C96.0144 136.561 96.0144 136.604 96.0572 136.646ZM104.273 143.216C104.273 143.259 104.316 143.302 104.359 143.302C104.402 143.302 104.445 143.259 104.445 143.173C104.445 143.13 104.402 143.087 104.359 143.087C104.316 143.13 104.273 143.173 104.273 143.216ZM97.5122 146.007C97.5122 146.05 97.5549 146.093 97.5977 146.093C97.6405 146.093 97.6833 146.05 97.6833 146.007C97.6833 145.964 97.6405 145.921 97.5977 145.921C97.5549 145.921 97.5122 145.964 97.5122 146.007ZM86.0437 141.37C86.1293 141.455 86.2149 141.455 86.3004 141.413C86.386 141.327 86.386 141.198 86.3004 141.155C86.2149 141.069 86.1293 141.069 86.0437 141.112C85.9581 141.155 85.9581 141.284 86.0437 141.37ZM89.5955 138.235C89.6811 138.321 89.7667 138.321 89.8522 138.278C89.9378 138.192 89.9378 138.063 89.8522 138.02C89.7667 137.935 89.6811 137.935 89.5955 137.978C89.5527 138.02 89.5527 138.149 89.5955 138.235ZM100.251 153.435C100.251 153.564 100.336 153.65 100.422 153.65C100.508 153.65 100.636 153.607 100.636 153.478C100.636 153.349 100.55 153.263 100.465 153.263C100.379 153.22 100.294 153.306 100.251 153.435C100.294 153.435 100.294 153.435 100.251 153.435ZM100.593 148.626C100.593 148.755 100.679 148.841 100.764 148.841C100.893 148.841 100.978 148.755 100.978 148.669C100.978 148.54 100.893 148.454 100.807 148.454C100.722 148.454 100.593 148.54 100.593 148.626ZM99.1383 143.345C99.1383 143.474 99.2239 143.559 99.3094 143.559C99.395 143.559 99.5234 143.516 99.5234 143.388C99.5234 143.259 99.4378 143.173 99.3522 143.173C99.2667 143.13 99.1811 143.216 99.1383 143.345ZM101.321 139.996C101.321 140.124 101.406 140.21 101.492 140.21C101.62 140.21 101.706 140.124 101.706 140.039C101.706 139.91 101.62 139.824 101.535 139.824C101.406 139.824 101.321 139.91 101.321 139.996ZM91.2644 148.712C91.35 148.755 91.4784 148.712 91.5212 148.626C91.564 148.54 91.5212 148.411 91.4356 148.368C91.35 148.325 91.2216 148.368 91.1788 148.454C91.136 148.54 91.1788 148.669 91.2644 148.712ZM92.9333 143.989C93.0189 144.032 93.1473 143.989 93.1901 143.903C93.2329 143.817 93.1901 143.688 93.1045 143.645C93.0189 143.602 92.8905 143.645 92.8477 143.731C92.8049 143.817 92.8477 143.946 92.9333 143.989ZM95.5009 140.124C95.5865 140.167 95.7149 140.124 95.7577 140.039C95.8004 139.953 95.7576 139.824 95.6721 139.781C95.5865 139.738 95.4581 139.781 95.4153 139.867C95.3297 139.953 95.3725 140.081 95.5009 140.124ZM97.8973 136.818C97.9829 136.861 98.1113 136.818 98.154 136.732C98.1968 136.646 98.154 136.518 98.0685 136.475C97.9829 136.432 97.8545 136.475 97.8117 136.561C97.7689 136.646 97.8117 136.732 97.8973 136.818ZM89.7667 151.546C89.8095 151.632 89.895 151.718 90.0234 151.675C90.109 151.632 90.1946 151.546 90.1518 151.417C90.109 151.331 90.0234 151.245 89.9378 151.288C89.8094 151.331 89.7239 151.417 89.7667 151.546ZM107.74 145.535C107.782 145.62 107.868 145.706 107.996 145.663C108.082 145.62 108.168 145.535 108.125 145.406C108.082 145.32 107.996 145.234 107.868 145.277C107.74 145.32 107.697 145.406 107.74 145.535ZM106.884 143.173C106.927 143.259 107.012 143.345 107.098 143.302C107.183 143.259 107.269 143.173 107.226 143.044C107.183 142.958 107.098 142.872 106.969 142.915C106.884 142.958 106.841 143.087 106.884 143.173ZM98.6676 146.05C98.7104 146.136 98.7959 146.222 98.9243 146.179C99.0099 146.136 99.0955 146.05 99.0527 145.921C99.0099 145.835 98.9243 145.749 98.7959 145.792C98.7104 145.835 98.6676 145.964 98.6676 146.05ZM88.0549 134.628C88.0977 134.714 88.1833 134.8 88.3117 134.757C88.3973 134.714 88.4829 134.628 88.4401 134.5C88.3973 134.414 88.3117 134.328 88.1833 134.371C88.0549 134.414 88.0122 134.5 88.0549 134.628ZM87.1563 146.479C87.2419 146.522 87.3275 146.522 87.4131 146.436C87.4558 146.35 87.4558 146.264 87.3703 146.179C87.2847 146.136 87.1991 146.136 87.1563 146.222C87.0707 146.35 87.0707 146.436 87.1563 146.479ZM89.3815 142.872C89.4671 142.915 89.5527 142.915 89.6383 142.829C89.6811 142.744 89.6811 142.615 89.5955 142.572C89.5099 142.529 89.4243 142.572 89.3387 142.615C89.2959 142.701 89.2959 142.829 89.3815 142.872ZM91.564 139.137C91.564 139.18 91.6067 139.223 91.6495 139.223C91.7351 139.266 91.8207 139.266 91.9063 139.18C91.9491 139.094 91.9491 138.965 91.8635 138.922C91.8207 138.879 91.7351 138.879 91.6923 138.922C91.6495 138.922 91.6495 138.965 91.6067 139.008C91.5639 139.051 91.5212 139.094 91.564 139.137ZM93.8748 135.616C93.9604 135.659 94.0459 135.659 94.1315 135.573C94.1743 135.487 94.1743 135.358 94.0887 135.315C94.0031 135.272 93.9176 135.272 93.832 135.358C93.7464 135.444 93.7892 135.573 93.8748 135.616ZM104.659 149.399C104.701 149.485 104.787 149.571 104.873 149.528C104.958 149.528 105.001 149.399 105.001 149.313C105.001 149.227 104.873 149.141 104.787 149.184C104.659 149.184 104.616 149.313 104.659 149.399ZM103.674 145.234C103.717 145.32 103.803 145.406 103.888 145.363C103.974 145.363 104.017 145.234 104.017 145.148C104.017 145.062 103.888 144.976 103.803 145.019C103.717 145.019 103.674 145.105 103.674 145.234ZM103.075 140.597C103.075 140.683 103.204 140.768 103.289 140.726C103.375 140.726 103.418 140.64 103.418 140.511C103.418 140.425 103.289 140.339 103.204 140.382C103.118 140.425 103.075 140.511 103.075 140.597ZM97.6405 151.331C97.6833 151.417 97.7689 151.503 97.8545 151.46C97.9401 151.417 97.9829 151.331 97.9829 151.245C97.9401 151.159 97.8545 151.073 97.7689 151.116C97.6833 151.159 97.5977 151.245 97.6405 151.331ZM95.5865 147.424C95.5865 147.51 95.6293 147.596 95.7149 147.638C95.8004 147.638 95.886 147.596 95.9288 147.51C95.9288 147.424 95.886 147.338 95.8004 147.295C95.6721 147.252 95.5865 147.338 95.5865 147.424ZM98.4964 142.314C98.4964 142.4 98.5392 142.486 98.6248 142.529C98.7104 142.529 98.7959 142.486 98.8387 142.4C98.8387 142.314 98.7959 142.228 98.7104 142.185C98.6248 142.185 98.5392 142.228 98.4964 142.314ZM96.9558 138.965C96.9558 139.051 96.9986 139.137 97.0842 139.18C97.1698 139.18 97.2554 139.137 97.2982 139.051C97.2982 138.965 97.2554 138.879 97.1698 138.836C97.0414 138.793 96.9558 138.879 96.9558 138.965ZM111.377 144.032C111.42 144.118 111.548 144.118 111.591 144.075C111.677 144.032 111.677 143.903 111.634 143.817C111.591 143.731 111.463 143.731 111.377 143.774C111.334 143.817 111.334 143.946 111.377 144.032ZM87.9694 136.689C88.0122 136.732 88.0977 136.732 88.0977 136.689C88.1405 136.646 88.1405 136.561 88.0977 136.561C88.0549 136.518 87.9694 136.518 87.9694 136.561C87.9266 136.561 87.9266 136.646 87.9694 136.689ZM97.2126 139.566C97.2126 139.609 97.2554 139.652 97.2982 139.652C97.341 139.652 97.3838 139.609 97.3838 139.566C97.3838 139.523 97.341 139.48 97.2982 139.48C97.2554 139.437 97.2126 139.48 97.2126 139.566ZM97.127 137.033C97.127 137.076 97.1698 137.119 97.2554 137.119C97.2982 137.119 97.341 137.076 97.341 137.033C97.341 136.99 97.2982 136.947 97.2554 136.947C97.1698 136.904 97.127 136.947 97.127 137.033ZM92.377 137.462C92.4198 137.462 92.5054 137.462 92.5054 137.419C92.5054 137.376 92.5054 137.291 92.4626 137.291C92.4198 137.248 92.3342 137.291 92.3342 137.333C92.2914 137.376 92.3342 137.419 92.377 137.462ZM110.564 148.325C110.564 148.368 110.65 148.411 110.692 148.368C110.735 148.325 110.778 148.283 110.735 148.24C110.735 148.197 110.65 148.154 110.607 148.197C110.564 148.197 110.521 148.283 110.564 148.325ZM87.4558 137.162C87.4986 137.205 87.5842 137.162 87.627 137.119C87.6698 137.076 87.627 136.99 87.5842 136.947C87.5414 136.904 87.4558 136.947 87.4131 136.99C87.3703 137.033 87.4131 137.119 87.4558 137.162ZM97.3838 140.468C97.3838 140.511 97.4694 140.554 97.5122 140.554C97.5549 140.554 97.5977 140.468 97.5977 140.425C97.5977 140.382 97.5122 140.339 97.4694 140.339C97.4266 140.339 97.3838 140.382 97.3838 140.468ZM96.7847 137.634C96.7847 137.72 96.8703 137.72 96.9131 137.72C96.9558 137.72 96.9986 137.634 96.9986 137.591C96.9986 137.548 96.9131 137.505 96.8703 137.505C96.7847 137.505 96.7419 137.591 96.7847 137.634ZM91.564 139.137C91.564 139.137 91.6067 139.137 91.6067 139.18C91.6495 139.18 91.7351 139.137 91.7351 139.094C91.7351 139.051 91.6923 138.965 91.6495 138.965C91.6067 138.965 91.5212 139.008 91.5212 139.051C91.4784 139.051 91.5212 139.094 91.564 139.137ZM91.9919 136.174C91.9919 136.217 92.0347 136.303 92.0775 136.303C92.1631 136.303 92.2058 136.26 92.2058 136.217C92.2058 136.131 92.1631 136.088 92.1203 136.088C92.0775 136.045 92.0347 136.088 91.9919 136.174ZM102.262 150.344C102.305 150.386 102.391 150.429 102.433 150.386C102.476 150.344 102.519 150.258 102.476 150.215C102.433 150.172 102.391 150.129 102.305 150.172C102.262 150.215 102.219 150.301 102.262 150.344ZM96.5707 142.615C96.6135 142.658 96.6991 142.701 96.7419 142.658C96.7847 142.615 96.8275 142.529 96.7847 142.486C96.7419 142.443 96.6991 142.4 96.6135 142.443C96.5707 142.486 96.5279 142.572 96.5707 142.615ZM87.3703 144.676C87.4131 144.719 87.4986 144.762 87.5414 144.719C87.5842 144.676 87.627 144.59 87.5842 144.547C87.5414 144.504 87.4986 144.461 87.4131 144.504C87.3703 144.547 87.3275 144.59 87.3703 144.676ZM89.3387 139.867C89.3815 139.91 89.4671 139.953 89.5099 139.91C89.5527 139.867 89.5955 139.781 89.5527 139.738C89.5099 139.695 89.4671 139.652 89.3815 139.695C89.3387 139.738 89.3387 139.824 89.3387 139.867ZM102.134 145.706C102.177 145.749 102.262 145.792 102.305 145.749C102.348 145.706 102.391 145.62 102.348 145.577C102.305 145.535 102.262 145.492 102.177 145.535C102.134 145.577 102.134 145.663 102.134 145.706ZM102.861 146.737C102.904 146.78 102.99 146.823 103.032 146.78C103.075 146.737 103.118 146.651 103.075 146.608C103.032 146.565 102.99 146.522 102.904 146.565C102.861 146.565 102.861 146.651 102.861 146.737ZM87.0707 151.031C87.0707 151.159 87.1135 151.245 87.2419 151.245C87.3703 151.245 87.4558 151.202 87.4558 151.073C87.4558 150.945 87.4131 150.859 87.2847 150.859C87.1991 150.859 87.1135 150.945 87.0707 151.031ZM87.841 146.179C87.841 146.307 87.8838 146.393 88.0122 146.393C88.1405 146.393 88.2261 146.35 88.2261 146.222C88.2261 146.093 88.1833 146.007 88.0549 146.007C87.9694 145.964 87.841 146.05 87.841 146.179ZM88.5685 141.284C88.5685 141.413 88.6113 141.498 88.7396 141.498C88.868 141.498 88.9536 141.455 88.9536 141.327C88.9536 141.198 88.9108 141.112 88.7824 141.112C88.6968 141.112 88.6113 141.155 88.5685 141.284ZM89.3387 136.389C89.3387 136.518 89.3815 136.604 89.5099 136.604C89.6383 136.604 89.7239 136.561 89.7239 136.432C89.7239 136.303 89.6811 136.217 89.5527 136.217C89.4671 136.217 89.3387 136.26 89.3387 136.389ZM107.098 146.35C107.183 146.436 107.312 146.479 107.397 146.393C107.483 146.307 107.483 146.179 107.44 146.093C107.397 146.007 107.269 145.964 107.183 146.05C107.055 146.136 107.012 146.264 107.098 146.35ZM103.674 141.67C103.76 141.756 103.845 141.799 103.974 141.713C104.059 141.627 104.102 141.541 104.017 141.413C103.974 141.327 103.845 141.284 103.76 141.37C103.632 141.455 103.632 141.584 103.674 141.67ZM100.123 138.192C100.208 138.278 100.294 138.321 100.422 138.235C100.508 138.149 100.55 138.02 100.465 137.935C100.422 137.849 100.294 137.806 100.208 137.892C100.08 137.978 100.037 138.106 100.123 138.192ZM96.6563 148.54C96.6991 148.626 96.7847 148.712 96.9131 148.712C96.9986 148.669 97.0842 148.583 97.0414 148.454C96.9986 148.325 96.9131 148.283 96.7847 148.283C96.6991 148.325 96.6563 148.411 96.6563 148.54ZM95.1158 144.032C95.1586 144.161 95.2441 144.203 95.3725 144.203C95.4581 144.161 95.5437 144.075 95.5009 143.946C95.4581 143.817 95.3725 143.774 95.2441 143.774C95.1585 143.817 95.1158 143.946 95.1158 144.032ZM94.3883 138.922C94.4311 139.051 94.5167 139.094 94.645 139.094C94.7734 139.051 94.8162 138.965 94.7734 138.836C94.7306 138.707 94.645 138.665 94.5167 138.665C94.4311 138.665 94.3455 138.793 94.3883 138.922ZM93.7036 150.129C93.7464 150.258 93.832 150.301 93.9604 150.258C94.0887 150.215 94.1315 150.129 94.0887 150C94.0459 149.914 93.9604 149.828 93.8748 149.871C93.7464 149.914 93.7036 150 93.7036 150.129ZM92.3342 144.848C92.377 144.976 92.4626 145.019 92.591 145.019C92.6766 144.976 92.7622 144.89 92.7622 144.762C92.7194 144.633 92.6338 144.59 92.5054 144.59C92.377 144.633 92.2914 144.719 92.3342 144.848ZM91.8207 140.425C91.8635 140.554 91.9491 140.597 92.0775 140.597C92.2058 140.554 92.2486 140.468 92.2486 140.339C92.2486 140.21 92.1203 140.167 92.0347 140.167C91.8635 140.21 91.8207 140.339 91.8207 140.425ZM90.8793 135.616C90.8793 135.702 91.0076 135.788 91.0932 135.788C91.2216 135.745 91.2644 135.659 91.2644 135.53C91.2644 135.401 91.136 135.358 91.0504 135.358C90.9221 135.401 90.8365 135.487 90.8793 135.616ZM101.021 143.602C101.064 143.688 101.192 143.731 101.321 143.645C101.406 143.602 101.449 143.474 101.364 143.345C101.321 143.259 101.192 143.216 101.107 143.259C100.978 143.388 100.978 143.474 101.021 143.602ZM99.2239 139.91C99.2667 139.996 99.395 140.039 99.5234 139.953C99.609 139.91 99.6518 139.781 99.5662 139.652C99.5234 139.566 99.395 139.523 99.3094 139.566C99.1811 139.695 99.1383 139.824 99.2239 139.91ZM94.7734 137.033C94.8162 137.119 94.9446 137.162 95.073 137.076C95.1585 137.033 95.2013 136.904 95.1158 136.775C95.073 136.689 94.9446 136.646 94.859 136.732C94.7306 136.818 94.7306 136.947 94.7734 137.033ZM93.7892 141.627C93.832 141.713 93.9176 141.756 94.0031 141.713C94.0887 141.67 94.1315 141.584 94.0887 141.498C94.0459 141.413 93.9604 141.37 93.9176 141.413C93.832 141.455 93.7892 141.541 93.7892 141.627ZM92.377 138.192C92.4198 138.278 92.5054 138.321 92.591 138.278C92.6766 138.235 92.7194 138.149 92.6766 138.063C92.6338 137.978 92.5482 137.935 92.4626 137.978C92.377 138.02 92.3342 138.106 92.377 138.192ZM90.9221 134.757C90.9649 134.843 91.0504 134.886 91.136 134.843C91.2216 134.8 91.2644 134.714 91.2216 134.628C91.1788 134.543 91.0932 134.5 91.0076 134.543C90.9221 134.585 90.8793 134.714 90.9221 134.757ZM86.0437 141.241C86.0437 141.327 86.1293 141.413 86.2149 141.413C86.3004 141.413 86.3432 141.327 86.3432 141.241C86.3432 141.155 86.2576 141.069 86.1721 141.069C86.0865 141.069 86.0437 141.155 86.0437 141.241ZM99.4806 136.818C99.5234 136.861 99.609 136.861 99.6946 136.818C99.7374 136.775 99.7374 136.646 99.6946 136.604C99.6518 136.561 99.5662 136.561 99.4806 136.604C99.395 136.646 99.395 136.775 99.4806 136.818ZM87.7554 137.505C87.7982 137.548 87.8838 137.591 87.9266 137.548C87.9694 137.505 88.0122 137.419 87.9694 137.376C87.9266 137.333 87.841 137.291 87.7982 137.333C87.7126 137.376 87.7126 137.462 87.7554 137.505Z" fill="white"/>
<path d="M110.05 66.7012C110.05 66.7012 109.365 72.5407 108.167 74.5158C108.167 74.5158 115.356 75.4175 117.924 76.405L117.539 69.6639L110.05 66.7012Z" fill="url(#paint2_linear_1775_52762)"/>
<path d="M120.749 69.7938C123.958 68.4628 125.584 65.2854 126.269 65.3713C126.953 65.4572 128.494 65.2854 128.665 64.5555C128.836 63.8255 127.938 61.1634 127.724 58.5872C127.724 58.3295 127.681 58.1149 127.724 57.8572V56.8697C127.424 54.3364 127.125 53.7782 126.44 53.1771C124.771 51.7172 123.658 49.3986 117.967 49.3556C114.971 49.3556 111.334 49.2697 108.51 53.1771C105.514 57.299 108.039 62.108 109.194 63.1815C110.35 64.2549 111.805 64.856 111.077 66.0583C110.821 66.3588 110.435 66.5735 110.05 66.6165L110.35 66.8741C110.435 66.96 110.564 67.0458 110.649 67.0888L112.104 68.0763C114.715 69.9656 117.753 71.039 120.749 69.7938Z" fill="#FFCEC5"/>
<path d="M123.359 57.6411C121.048 56.4388 120.791 57.9417 118.481 59.788C116.213 61.6343 114.159 60.5608 111.163 59.8309C108.125 59.101 107.996 62.1495 109.152 63.18C110.307 64.2535 111.762 64.8546 111.035 66.0568C110.307 67.302 105.472 68.1178 102.604 59.6591C97.6405 45.1034 108.767 43.2141 114.458 42.7847C124.942 42.0119 130.505 48.7101 130.505 48.7101L134.571 47.4649C135.084 52.1022 130.077 59.745 123.359 57.6411Z" fill="#2A2A64"/>
<path d="M108.467 73.3574C108.467 73.3574 103.589 74.1303 98.8813 80.3133C91.1358 90.4895 92.548 94.0533 82.7484 104.616C77.7417 110.026 72.9489 118.055 74.361 126.986C74.361 126.986 108.125 141.757 134.656 131.752L117.924 76.363C115.228 75.3755 111.291 73.8727 108.467 73.3574Z" fill="url(#paint3_linear_1775_52762)"/>
<path d="M129.264 59.1883C128.879 60.3047 127.638 60.9058 126.525 60.5194C126.14 60.3906 125.755 60.09 125.498 59.7465C125.284 59.4889 125.669 59.1454 125.883 59.403C126.397 60.1759 127.424 60.3476 128.151 59.8324C128.451 59.6606 128.665 59.3601 128.75 59.0595C128.879 58.716 129.392 58.8448 129.264 59.1883Z" fill="#232A61"/>
<path d="M131.575 48.5832L101.749 57.3424L101.363 56.5695L101.021 55.3243C98.967 48.2397 102.99 40.8544 110.008 38.7934L113.859 37.6341C121.176 35.4443 128.836 39.6522 131.019 47.0374L131.19 47.8103L131.575 48.5832Z" fill="url(#paint4_linear_1775_52762)"/>
<path d="M147.794 44.761L101.877 58.3292L101.406 56.6547L145.996 43.5158C146.767 43.3011 147.537 43.6876 147.751 44.4604L147.794 44.761Z" fill="url(#paint5_linear_1775_52762)"/>
<path d="M158.363 139.18C157.293 138.106 160.374 133.512 158.962 132.481C157.678 131.537 156.009 135.143 153.1 136.861C150.832 138.192 149.633 138.106 146.638 137.033C140.69 134.929 127.509 128.359 127.509 128.359L123.872 143.903C128.066 144.418 140.861 142.958 147.194 143.13C152.073 143.259 154.084 147.81 159.946 147.81C165.852 147.81 174.368 140.167 170.944 133.855L166.408 137.204C166.451 137.162 160.374 141.112 158.363 139.18Z" fill="#FFCEC5"/>
<path d="M113.559 79.1962C115.185 80.4843 115.699 82.5883 115.442 84.6493C114.843 89.3294 114.03 99.935 117.325 107.492C125.456 126.384 144.841 123.851 144.841 123.851L144.199 155.11C144.199 155.11 131.104 158.63 123.787 153.263C111.719 144.418 111.163 141.627 105.172 139.609C91.2213 134.972 80.3947 118.012 104.658 81.9871C106.113 79.8403 107.44 78.5951 109.579 78.2086C110.35 78.0798 111.206 78.1228 111.719 78.2516C112.318 78.4233 113.088 78.7668 113.559 79.1962Z" fill="#C4C5FF"/>
</g>
<g clip-path="url(#clip5_1775_52762)">
<path d="M126.396 57.8992C126.267 57.8992 126.182 57.8133 126.182 57.6845C126.182 57.5557 126.267 57.4698 126.396 57.4698C126.481 57.4698 133.585 56.6969 135.724 50.3851C135.767 50.2563 135.896 50.2134 135.981 50.2563C136.11 50.2993 136.152 50.4281 136.11 50.514C133.884 57.1263 126.481 57.8992 126.396 57.8992Z" fill="#2A2A64"/>
<path d="M229.154 78.8443L60.3749 238.081L55.0399 232.389L223.819 73.1512L229.154 78.8443ZM191.091 38.2341L22.3115 197.471L16.9766 191.778L185.756 32.541L191.091 38.2341Z" fill="#696CFF"/>
<path d="M73.8207 225.399L31.1113 179.824L37.5645 173.736L80.2738 219.311L73.8207 225.399ZM99.3633 201.267L56.6539 155.692L63.1071 149.604L105.816 195.179L99.3633 201.267ZM148.686 154.207L105.977 108.632L112.43 102.544L155.139 148.119L148.686 154.207ZM124.966 177.136L82.2573 131.562L88.7104 125.473L131.419 171.048L124.966 177.136ZM173.444 131.11L130.735 85.5354L137.188 79.4469L179.897 125.022L173.444 131.11ZM199.016 107.009L156.306 61.4342L162.76 55.3457L205.469 100.921L199.016 107.009Z" fill="#696CFF"/>
<path d="M112.532 259.318L106.07 277.438H151.73C151.73 277.438 149.377 272.887 141.588 269.537C133.8 266.188 126.482 259.318 126.482 259.318H112.532Z" fill="url(#paint6_linear_1775_52762)"/>
<path d="M77.9109 259.275L71.4492 277.395H117.109C117.109 277.395 114.756 272.844 106.967 269.494C99.1362 266.145 91.8614 259.275 91.8614 259.275H77.9109Z" fill="#696CFF"/>
<path d="M131.36 189.459C130.589 179.326 127.936 170.095 126.31 160.863C126.096 159.575 125.797 158.33 125.625 157.042C124.812 150.902 122.245 131.021 121.689 128.359L109.792 129.733L104.058 130.635C104.058 130.635 99.9926 131.408 96.9971 132.997C95.8417 138.793 95.5422 145.964 97.4678 154.337C102.988 178.596 103.416 175.161 102.56 192.207C101.704 209.211 104.486 203.457 105.299 221.319C106.155 239.181 92.8034 237.979 105.641 259.19L130.461 259.276C130.461 259.318 132.515 204.788 131.36 189.459Z" fill="url(#paint7_linear_1775_52762)"/>
<path d="M122.03 164.471C122.03 164.471 122.33 131.194 123.485 127.029L89.208 129.047L87.2395 132.869C86.8544 132.783 87.5818 132.955 87.2395 132.869C84.3724 143.603 84.7147 154.982 88.3093 165.544C97.0818 191.994 91.7327 191.865 88.2237 198.735C84.3296 206.292 84.3296 214.149 82.7035 220.547C80.949 227.46 76.1134 229.821 72.5188 241.114C69.5233 250.603 69.0098 259.362 69.0098 259.362L97.2102 259.277C97.2102 259.277 119.42 203.844 120.575 192.294C121.602 181.903 121.131 177.867 122.03 164.471Z" fill="#2A2A64"/>
<path opacity="0.86" d="M99.6508 140.768C99.6936 140.811 99.7792 140.768 99.7792 140.726C99.822 140.683 99.7792 140.597 99.7364 140.597C99.6936 140.554 99.608 140.597 99.608 140.64C99.5652 140.683 99.608 140.768 99.6508 140.768ZM99.1373 137.978C99.1801 137.978 99.2657 137.978 99.2657 137.935C99.2657 137.892 99.2657 137.806 99.2229 137.806C99.1801 137.763 99.1373 137.806 99.0945 137.849C99.0517 137.892 99.0945 137.935 99.1373 137.978ZM89.5089 149.442C89.5517 149.485 89.6373 149.442 89.6373 149.399C89.6801 149.356 89.6373 149.27 89.5945 149.27C89.5517 149.227 89.4661 149.27 89.4661 149.313C89.4233 149.356 89.4661 149.442 89.5089 149.442ZM108.124 143.345C108.124 143.388 108.209 143.431 108.252 143.388C108.295 143.388 108.338 143.302 108.295 143.259C108.295 143.216 108.209 143.173 108.167 143.216C108.124 143.216 108.081 143.302 108.124 143.345ZM96.0562 136.646C96.099 136.689 96.1418 136.689 96.1846 136.646C96.2274 136.604 96.2274 136.561 96.1846 136.518C96.1418 136.475 96.099 136.475 96.0562 136.518C96.0134 136.561 96.0134 136.604 96.0562 136.646ZM104.272 143.216C104.272 143.259 104.315 143.302 104.358 143.302C104.401 143.302 104.444 143.259 104.444 143.173C104.444 143.13 104.401 143.087 104.358 143.087C104.315 143.13 104.272 143.173 104.272 143.216ZM97.5112 146.007C97.5112 146.05 97.554 146.093 97.5968 146.093C97.6396 146.093 97.6824 146.05 97.6824 146.007C97.6824 145.964 97.6396 145.921 97.5968 145.921C97.554 145.921 97.5112 145.964 97.5112 146.007ZM86.0427 141.37C86.1283 141.455 86.2139 141.455 86.2995 141.413C86.385 141.327 86.385 141.198 86.2995 141.155C86.2139 141.069 86.1283 141.069 86.0427 141.112C85.9571 141.155 85.9571 141.284 86.0427 141.37ZM89.5945 138.235C89.6801 138.321 89.7657 138.321 89.8513 138.278C89.9369 138.192 89.9369 138.063 89.8513 138.02C89.7657 137.935 89.6801 137.935 89.5945 137.978C89.5517 138.02 89.5517 138.149 89.5945 138.235ZM100.25 153.435C100.25 153.564 100.336 153.65 100.421 153.65C100.507 153.65 100.635 153.607 100.635 153.478C100.635 153.349 100.549 153.263 100.464 153.263C100.378 153.22 100.293 153.306 100.25 153.435C100.293 153.435 100.293 153.435 100.25 153.435ZM100.592 148.626C100.592 148.755 100.678 148.841 100.763 148.841C100.892 148.841 100.977 148.755 100.977 148.669C100.977 148.54 100.892 148.454 100.806 148.454C100.721 148.454 100.592 148.54 100.592 148.626ZM99.1373 143.345C99.1373 143.474 99.2229 143.559 99.3085 143.559C99.3941 143.559 99.5224 143.516 99.5224 143.388C99.5224 143.259 99.4369 143.173 99.3513 143.173C99.2657 143.13 99.1801 143.216 99.1373 143.345ZM101.32 139.996C101.32 140.124 101.405 140.21 101.491 140.21C101.619 140.21 101.705 140.124 101.705 140.039C101.705 139.91 101.619 139.824 101.534 139.824C101.405 139.824 101.32 139.91 101.32 139.996ZM91.2634 148.712C91.349 148.755 91.4774 148.712 91.5202 148.626C91.563 148.54 91.5202 148.411 91.4346 148.368C91.349 148.325 91.2206 148.368 91.1778 148.454C91.135 148.54 91.1778 148.669 91.2634 148.712ZM92.9323 143.989C93.0179 144.032 93.1463 143.989 93.1891 143.903C93.2319 143.817 93.1891 143.688 93.1035 143.645C93.0179 143.602 92.8896 143.645 92.8468 143.731C92.804 143.817 92.8468 143.946 92.9323 143.989ZM95.4999 140.124C95.5855 140.167 95.7139 140.124 95.7567 140.039C95.7995 139.953 95.7567 139.824 95.6711 139.781C95.5855 139.738 95.4571 139.781 95.4143 139.867C95.3287 139.953 95.3715 140.081 95.4999 140.124ZM97.8963 136.818C97.9819 136.861 98.1103 136.818 98.1531 136.732C98.1959 136.646 98.1531 136.518 98.0675 136.475C97.9819 136.432 97.8535 136.475 97.8107 136.561C97.7679 136.646 97.8107 136.732 97.8963 136.818ZM89.7657 151.546C89.8085 151.632 89.8941 151.718 90.0224 151.675C90.108 151.632 90.1936 151.546 90.1508 151.417C90.108 151.331 90.0224 151.245 89.9369 151.288C89.8085 151.331 89.7229 151.417 89.7657 151.546ZM107.739 145.535C107.781 145.62 107.867 145.706 107.995 145.663C108.081 145.62 108.167 145.535 108.124 145.406C108.081 145.32 107.995 145.234 107.867 145.277C107.739 145.32 107.696 145.406 107.739 145.535ZM106.883 143.173C106.926 143.259 107.011 143.345 107.097 143.302C107.182 143.259 107.268 143.173 107.225 143.044C107.182 142.958 107.097 142.872 106.968 142.915C106.883 142.958 106.84 143.087 106.883 143.173ZM98.6666 146.05C98.7094 146.136 98.795 146.222 98.9233 146.179C99.0089 146.136 99.0945 146.05 99.0517 145.921C99.0089 145.835 98.9233 145.749 98.795 145.792C98.7094 145.835 98.6666 145.964 98.6666 146.05ZM88.054 134.628C88.0968 134.714 88.1823 134.8 88.3107 134.757C88.3963 134.714 88.4819 134.628 88.4391 134.5C88.3963 134.414 88.3107 134.328 88.1823 134.371C88.054 134.414 88.0112 134.5 88.054 134.628ZM87.1553 146.479C87.2409 146.522 87.3265 146.522 87.4121 146.436C87.4549 146.35 87.4549 146.264 87.3693 146.179C87.2837 146.136 87.1981 146.136 87.1553 146.222C87.0697 146.35 87.0697 146.436 87.1553 146.479ZM89.3805 142.872C89.4661 142.915 89.5517 142.915 89.6373 142.829C89.6801 142.744 89.6801 142.615 89.5945 142.572C89.5089 142.529 89.4233 142.572 89.3378 142.615C89.295 142.701 89.295 142.829 89.3805 142.872ZM91.563 139.137C91.563 139.18 91.6058 139.223 91.6486 139.223C91.7341 139.266 91.8197 139.266 91.9053 139.18C91.9481 139.094 91.9481 138.965 91.8625 138.922C91.8197 138.879 91.7342 138.879 91.6914 138.922C91.6486 138.922 91.6486 138.965 91.6058 139.008C91.563 139.051 91.5202 139.094 91.563 139.137ZM93.8738 135.616C93.9594 135.659 94.045 135.659 94.1305 135.573C94.1733 135.487 94.1733 135.358 94.0878 135.315C94.0022 135.272 93.9166 135.272 93.831 135.358C93.7454 135.444 93.7882 135.573 93.8738 135.616ZM104.658 149.399C104.7 149.485 104.786 149.571 104.872 149.528C104.957 149.528 105 149.399 105 149.313C105 149.227 104.872 149.141 104.786 149.184C104.658 149.184 104.615 149.313 104.658 149.399ZM103.673 145.234C103.716 145.32 103.802 145.406 103.887 145.363C103.973 145.363 104.016 145.234 104.016 145.148C104.016 145.062 103.887 144.976 103.802 145.019C103.716 145.019 103.673 145.105 103.673 145.234ZM103.074 140.597C103.074 140.683 103.203 140.768 103.288 140.726C103.374 140.726 103.417 140.64 103.417 140.511C103.417 140.425 103.288 140.339 103.203 140.382C103.117 140.425 103.074 140.511 103.074 140.597ZM97.6396 151.331C97.6823 151.417 97.7679 151.503 97.8535 151.46C97.9391 151.417 97.9819 151.331 97.9819 151.245C97.9391 151.159 97.8535 151.073 97.7679 151.116C97.6823 151.159 97.5968 151.245 97.6396 151.331ZM95.5855 147.424C95.5855 147.51 95.6283 147.596 95.7139 147.638C95.7995 147.638 95.885 147.596 95.9278 147.51C95.9278 147.424 95.885 147.338 95.7995 147.295C95.6711 147.252 95.5855 147.338 95.5855 147.424ZM98.4954 142.314C98.4954 142.4 98.5382 142.486 98.6238 142.529C98.7094 142.529 98.795 142.486 98.8378 142.4C98.8378 142.314 98.795 142.228 98.7094 142.185C98.6238 142.185 98.5382 142.228 98.4954 142.314ZM96.9549 138.965C96.9549 139.051 96.9977 139.137 97.0832 139.18C97.1688 139.18 97.2544 139.137 97.2972 139.051C97.2972 138.965 97.2544 138.879 97.1688 138.836C97.0405 138.793 96.9549 138.879 96.9549 138.965ZM111.376 144.032C111.419 144.118 111.547 144.118 111.59 144.075C111.676 144.032 111.676 143.903 111.633 143.817C111.59 143.731 111.462 143.731 111.376 143.774C111.333 143.817 111.333 143.946 111.376 144.032ZM87.9684 136.689C88.0112 136.732 88.0968 136.732 88.0968 136.689C88.1396 136.646 88.1396 136.561 88.0968 136.561C88.054 136.518 87.9684 136.518 87.9684 136.561C87.9256 136.561 87.9256 136.646 87.9684 136.689ZM97.2116 139.566C97.2116 139.609 97.2544 139.652 97.2972 139.652C97.34 139.652 97.3828 139.609 97.3828 139.566C97.3828 139.523 97.34 139.48 97.2972 139.48C97.2544 139.437 97.2116 139.48 97.2116 139.566ZM97.126 137.033C97.126 137.076 97.1688 137.119 97.2544 137.119C97.2972 137.119 97.34 137.076 97.34 137.033C97.34 136.99 97.2972 136.947 97.2544 136.947C97.1688 136.904 97.126 136.947 97.126 137.033ZM92.376 137.462C92.4188 137.462 92.5044 137.462 92.5044 137.419C92.5044 137.376 92.5044 137.291 92.4616 137.291C92.4188 137.248 92.3333 137.291 92.3333 137.333C92.2905 137.376 92.3332 137.419 92.376 137.462ZM110.563 148.325C110.563 148.368 110.649 148.411 110.691 148.368C110.734 148.325 110.777 148.283 110.734 148.24C110.734 148.197 110.649 148.154 110.606 148.197C110.563 148.197 110.52 148.283 110.563 148.325ZM87.4549 137.162C87.4977 137.205 87.5833 137.162 87.626 137.119C87.6688 137.076 87.626 136.99 87.5832 136.947C87.5405 136.904 87.4549 136.947 87.4121 136.99C87.3693 137.033 87.4121 137.119 87.4549 137.162ZM97.3828 140.468C97.3828 140.511 97.4684 140.554 97.5112 140.554C97.554 140.554 97.5968 140.468 97.5968 140.425C97.5968 140.382 97.5112 140.339 97.4684 140.339C97.4256 140.339 97.3828 140.382 97.3828 140.468ZM96.7837 137.634C96.7837 137.72 96.8693 137.72 96.9121 137.72C96.9549 137.72 96.9977 137.634 96.9977 137.591C96.9977 137.548 96.9121 137.505 96.8693 137.505C96.7837 137.505 96.7409 137.591 96.7837 137.634ZM91.563 139.137C91.563 139.137 91.6058 139.137 91.6058 139.18C91.6486 139.18 91.7341 139.137 91.7341 139.094C91.7341 139.051 91.6914 138.965 91.6486 138.965C91.6058 138.965 91.5202 139.008 91.5202 139.051C91.4774 139.051 91.5202 139.094 91.563 139.137ZM91.9909 136.174C91.9909 136.217 92.0337 136.303 92.0765 136.303C92.1621 136.303 92.2049 136.26 92.2049 136.217C92.2049 136.131 92.1621 136.088 92.1193 136.088C92.0765 136.045 92.0337 136.088 91.9909 136.174ZM102.261 150.344C102.304 150.386 102.39 150.429 102.432 150.386C102.475 150.344 102.518 150.258 102.475 150.215C102.432 150.172 102.39 150.129 102.304 150.172C102.261 150.215 102.218 150.301 102.261 150.344ZM96.5697 142.615C96.6125 142.658 96.6981 142.701 96.7409 142.658C96.7837 142.615 96.8265 142.529 96.7837 142.486C96.7409 142.443 96.6981 142.4 96.6125 142.443C96.5697 142.486 96.5269 142.572 96.5697 142.615ZM87.3693 144.676C87.4121 144.719 87.4977 144.762 87.5405 144.719C87.5832 144.676 87.626 144.59 87.5832 144.547C87.5405 144.504 87.4977 144.461 87.4121 144.504C87.3693 144.547 87.3265 144.59 87.3693 144.676ZM89.3378 139.867C89.3805 139.91 89.4661 139.953 89.5089 139.91C89.5517 139.867 89.5945 139.781 89.5517 139.738C89.5089 139.695 89.4661 139.652 89.3805 139.695C89.3378 139.738 89.3378 139.824 89.3378 139.867ZM102.133 145.706C102.176 145.749 102.261 145.792 102.304 145.749C102.347 145.706 102.39 145.62 102.347 145.577C102.304 145.535 102.261 145.492 102.176 145.535C102.133 145.577 102.133 145.663 102.133 145.706ZM102.86 146.737C102.903 146.78 102.989 146.823 103.031 146.78C103.074 146.737 103.117 146.651 103.074 146.608C103.031 146.565 102.989 146.522 102.903 146.565C102.86 146.565 102.86 146.651 102.86 146.737ZM87.0697 151.031C87.0697 151.159 87.1125 151.245 87.2409 151.245C87.3693 151.245 87.4549 151.202 87.4549 151.073C87.4549 150.945 87.4121 150.859 87.2837 150.859C87.1981 150.859 87.1125 150.945 87.0697 151.031ZM87.84 146.179C87.84 146.307 87.8828 146.393 88.0112 146.393C88.1396 146.393 88.2251 146.35 88.2251 146.222C88.2251 146.093 88.1823 146.007 88.054 146.007C87.9684 145.964 87.84 146.05 87.84 146.179ZM88.5675 141.284C88.5675 141.413 88.6103 141.498 88.7387 141.498C88.867 141.498 88.9526 141.455 88.9526 141.327C88.9526 141.198 88.9098 141.112 88.7814 141.112C88.6959 141.112 88.6103 141.155 88.5675 141.284ZM89.3378 136.389C89.3378 136.518 89.3805 136.604 89.5089 136.604C89.6373 136.604 89.7229 136.561 89.7229 136.432C89.7229 136.303 89.6801 136.217 89.5517 136.217C89.4661 136.217 89.3378 136.26 89.3378 136.389ZM107.097 146.35C107.182 146.436 107.311 146.479 107.396 146.393C107.482 146.307 107.482 146.179 107.439 146.093C107.396 146.007 107.268 145.964 107.182 146.05C107.054 146.136 107.011 146.264 107.097 146.35ZM103.673 141.67C103.759 141.756 103.845 141.799 103.973 141.713C104.058 141.627 104.101 141.541 104.016 141.413C103.973 141.327 103.845 141.284 103.759 141.37C103.631 141.455 103.631 141.584 103.673 141.67ZM100.122 138.192C100.207 138.278 100.293 138.321 100.421 138.235C100.507 138.149 100.549 138.02 100.464 137.935C100.421 137.849 100.293 137.806 100.207 137.892C100.079 137.978 100.036 138.106 100.122 138.192ZM96.6553 148.54C96.6981 148.626 96.7837 148.712 96.9121 148.712C96.9977 148.669 97.0833 148.583 97.0405 148.454C96.9977 148.325 96.9121 148.283 96.7837 148.283C96.6981 148.325 96.6553 148.411 96.6553 148.54ZM95.1148 144.032C95.1576 144.161 95.2432 144.203 95.3715 144.203C95.4571 144.161 95.5427 144.075 95.4999 143.946C95.4571 143.817 95.3715 143.774 95.2432 143.774C95.1576 143.817 95.1148 143.946 95.1148 144.032ZM94.3873 138.922C94.4301 139.051 94.5157 139.094 94.6441 139.094C94.7724 139.051 94.8152 138.965 94.7724 138.836C94.7296 138.707 94.6441 138.665 94.5157 138.665C94.4301 138.665 94.3445 138.793 94.3873 138.922ZM93.7026 150.129C93.7454 150.258 93.831 150.301 93.9594 150.258C94.0877 150.215 94.1305 150.129 94.0878 150C94.045 149.914 93.9594 149.828 93.8738 149.871C93.7454 149.914 93.7026 150 93.7026 150.129ZM92.3333 144.848C92.376 144.976 92.4616 145.019 92.59 145.019C92.6756 144.976 92.7612 144.89 92.7612 144.762C92.7184 144.633 92.6328 144.59 92.5044 144.59C92.376 144.633 92.2905 144.719 92.3333 144.848ZM91.8197 140.425C91.8625 140.554 91.9481 140.597 92.0765 140.597C92.2049 140.554 92.2477 140.468 92.2477 140.339C92.2477 140.21 92.1193 140.167 92.0337 140.167C91.8625 140.21 91.8197 140.339 91.8197 140.425ZM90.8783 135.616C90.8783 135.702 91.0067 135.788 91.0923 135.788C91.2206 135.745 91.2634 135.659 91.2634 135.53C91.2634 135.401 91.1351 135.358 91.0495 135.358C90.9211 135.401 90.8355 135.487 90.8783 135.616ZM101.02 143.602C101.063 143.688 101.191 143.731 101.32 143.645C101.405 143.602 101.448 143.474 101.363 143.345C101.32 143.259 101.191 143.216 101.106 143.259C100.977 143.388 100.977 143.474 101.02 143.602ZM99.2229 139.91C99.2657 139.996 99.3941 140.039 99.5224 139.953C99.608 139.91 99.6508 139.781 99.5652 139.652C99.5224 139.566 99.3941 139.523 99.3085 139.566C99.1801 139.695 99.1373 139.824 99.2229 139.91ZM94.7724 137.033C94.8152 137.119 94.9436 137.162 95.072 137.076C95.1576 137.033 95.2004 136.904 95.1148 136.775C95.072 136.689 94.9436 136.646 94.858 136.732C94.7296 136.818 94.7296 136.947 94.7724 137.033ZM93.7882 141.627C93.831 141.713 93.9166 141.756 94.0022 141.713C94.0878 141.67 94.1305 141.584 94.0878 141.498C94.045 141.413 93.9594 141.37 93.9166 141.413C93.831 141.455 93.7882 141.541 93.7882 141.627ZM92.376 138.192C92.4188 138.278 92.5044 138.321 92.59 138.278C92.6756 138.235 92.7184 138.149 92.6756 138.063C92.6328 137.978 92.5472 137.935 92.4616 137.978C92.376 138.02 92.3332 138.106 92.376 138.192ZM90.9211 134.757C90.9639 134.843 91.0495 134.886 91.1351 134.843C91.2206 134.8 91.2634 134.714 91.2206 134.628C91.1778 134.543 91.0923 134.5 91.0067 134.543C90.9211 134.585 90.8783 134.714 90.9211 134.757ZM86.0427 141.241C86.0427 141.327 86.1283 141.413 86.2139 141.413C86.2995 141.413 86.3423 141.327 86.3423 141.241C86.3423 141.155 86.2567 141.069 86.1711 141.069C86.0855 141.069 86.0427 141.155 86.0427 141.241ZM99.4796 136.818C99.5224 136.861 99.608 136.861 99.6936 136.818C99.7364 136.775 99.7364 136.646 99.6936 136.604C99.6508 136.561 99.5652 136.561 99.4796 136.604C99.3941 136.646 99.3941 136.775 99.4796 136.818ZM87.7544 137.505C87.7972 137.548 87.8828 137.591 87.9256 137.548C87.9684 137.505 88.0112 137.419 87.9684 137.376C87.9256 137.333 87.84 137.291 87.7972 137.333C87.7116 137.376 87.7116 137.462 87.7544 137.505Z" fill="white"/>
<path d="M110.049 66.7012C110.049 66.7012 109.364 72.5407 108.166 74.5158C108.166 74.5158 115.355 75.4175 117.923 76.405L117.538 69.6639L110.049 66.7012Z" fill="url(#paint8_linear_1775_52762)"/>
<path d="M120.749 69.7938C123.958 68.4628 125.584 65.2854 126.269 65.3713C126.953 65.4572 128.494 65.2854 128.665 64.5555C128.836 63.8255 127.938 61.1634 127.724 58.5872C127.724 58.3295 127.681 58.1149 127.724 57.8572V56.8697C127.424 54.3364 127.125 53.7782 126.44 53.1771C124.771 51.7172 123.658 49.3986 117.967 49.3556C114.971 49.3556 111.334 49.2697 108.51 53.1771C105.514 57.299 108.039 62.108 109.194 63.1815C110.35 64.2549 111.805 64.856 111.077 66.0583C110.821 66.3588 110.435 66.5735 110.05 66.6165L110.35 66.8741C110.435 66.96 110.564 67.0458 110.649 67.0888L112.104 68.0763C114.715 69.9656 117.753 71.039 120.749 69.7938Z" fill="#FFCEC5"/>
<path d="M123.357 57.6411C121.046 56.4388 120.789 57.9417 118.479 59.788C116.211 61.6343 114.157 60.5608 111.161 59.8309C108.123 59.101 107.994 62.1495 109.15 63.18C110.305 64.2535 111.76 64.8546 111.033 66.0568C110.305 67.302 105.47 68.1178 102.603 59.6591C97.6386 45.1034 108.765 43.2141 114.456 42.7847C124.94 42.0119 130.503 48.7101 130.503 48.7101L134.569 47.4649C135.082 52.1022 130.076 59.745 123.357 57.6411Z" fill="#2A2A64"/>
<path d="M108.466 73.3574C108.466 73.3574 103.588 74.1303 98.8803 80.3133C91.1348 90.4895 92.547 94.0533 82.7474 104.616C77.7407 110.026 72.9479 118.055 74.3601 126.986C74.3601 126.986 108.124 141.757 134.655 131.752L117.923 76.363C115.227 75.3755 111.29 73.8727 108.466 73.3574Z" fill="url(#paint9_linear_1775_52762)"/>
<path d="M129.262 59.1883C128.877 60.3047 127.636 60.9058 126.523 60.5194C126.138 60.3906 125.753 60.09 125.496 59.7465C125.282 59.4889 125.667 59.1454 125.881 59.403C126.395 60.1759 127.422 60.3476 128.149 59.8324C128.449 59.6606 128.663 59.3601 128.749 59.0595C128.877 58.716 129.39 58.8448 129.262 59.1883Z" fill="#232A61"/>
<path d="M131.575 48.5832L101.749 57.3424L101.363 56.5695L101.021 55.3243C98.967 48.2397 102.99 40.8544 110.008 38.7934L113.859 37.6341C121.176 35.4443 128.836 39.6522 131.019 47.0374L131.19 47.8103L131.575 48.5832Z" fill="url(#paint10_linear_1775_52762)"/>
<path d="M147.794 44.761L101.877 58.3292L101.406 56.6547L145.996 43.5158C146.767 43.3011 147.537 43.6876 147.751 44.4604L147.794 44.761Z" fill="url(#paint11_linear_1775_52762)"/>
<path d="M158.362 139.18C157.292 138.106 160.373 133.512 158.961 132.481C157.677 131.537 156.008 135.143 153.099 136.861C150.831 138.192 149.632 138.106 146.637 137.033C140.689 134.929 127.508 128.359 127.508 128.359L123.871 143.903C128.065 144.418 140.86 142.958 147.193 143.13C152.072 143.259 154.083 147.81 159.945 147.81C165.851 147.81 174.367 140.167 170.943 133.855L166.407 137.204C166.45 137.162 160.373 141.112 158.362 139.18Z" fill="#FFCEC5"/>
<path d="M113.559 79.1962C115.185 80.4843 115.699 82.5883 115.442 84.6492C114.843 89.3294 114.03 99.935 117.325 107.492C125.456 126.384 144.841 123.851 144.841 123.851L144.199 155.11C144.199 155.11 131.104 158.63 123.787 153.263C111.719 144.418 111.163 141.627 105.172 139.609C91.2213 134.972 80.3947 118.012 104.658 81.9871C106.113 79.8403 107.44 78.5951 109.579 78.2086C110.35 78.0798 111.206 78.1228 111.719 78.2516C112.318 78.4233 113.088 78.7668 113.559 79.1962Z" fill="#C4C5FF"/>
</g>
<g filter="url(#filter2_d_1775_52762)">
<path d="M321.594 272.072H359.743L357.769 260.963L355.611 249.021L353.591 237.912L351.112 224.072L349.46 214.861H331.923L330.224 224.072L327.745 237.912L325.725 249.021L323.568 260.963L321.594 272.072Z" fill="url(#paint12_linear_1775_52762)"/>
<path d="M314.846 277.393H366.492V272.07H314.846V277.393Z" fill="url(#paint13_linear_1775_52762)"/>
<path d="M321.594 272.072H359.743L357.769 260.963H323.568L321.594 272.072Z" fill="url(#paint14_linear_1775_52762)"/>
<path d="M325.725 249.021H355.611L353.591 237.912H327.745L325.725 249.021Z" fill="url(#paint15_linear_1775_52762)"/>
<path d="M330.224 224.072H351.112L349.46 214.861H331.923L330.224 224.072Z" fill="url(#paint16_linear_1775_52762)"/>
</g>
<g clip-path="url(#clip6_1775_52762)">
<path d="M321.594 272.072H359.743L357.769 260.963L355.611 249.021L353.591 237.912L351.112 224.072L349.46 214.861H331.923L330.224 224.072L327.745 237.912L325.725 249.021L323.568 260.963L321.594 272.072Z" fill="url(#paint17_linear_1775_52762)"/>
<path d="M314.846 277.393H366.492V272.07H314.846V277.393Z" fill="url(#paint18_linear_1775_52762)"/>
<path d="M321.594 272.072H359.743L357.769 260.963H323.568L321.594 272.072Z" fill="url(#paint19_linear_1775_52762)"/>
<path d="M325.727 249.021H355.612L353.592 237.912H327.746L325.727 249.021Z" fill="url(#paint20_linear_1775_52762)"/>
<path d="M330.225 224.072H351.112L349.46 214.861H331.923L330.225 224.072Z" fill="url(#paint21_linear_1775_52762)"/>
</g>
<g filter="url(#filter3_d_1775_52762)">
<path d="M277.084 270.527L266.039 233.324L255.97 238.465L245.111 244.027L234.995 249.168L222.419 255.618L214.066 259.917L219.124 277.023L228.452 275.995L242.512 274.406L253.742 273.144L265.854 271.789L277.084 270.527Z" fill="url(#paint22_linear_1775_52762)"/>
<path d="M284.138 275.574L269.195 225.191L264.091 226.734L279.033 277.116L284.138 275.574Z" fill="url(#paint23_linear_1775_52762)"/>
<path d="M277.084 270.527L266.039 233.324L255.97 238.465L265.854 271.789L277.084 270.527Z" fill="url(#paint24_linear_1775_52762)"/>
<path d="M253.742 273.144L245.111 244.027L234.995 249.168L242.512 274.406L253.742 273.144Z" fill="url(#paint25_linear_1775_52762)"/>
<path d="M228.452 275.995L222.419 255.618L214.066 259.917L219.124 277.023L228.452 275.995Z" fill="url(#paint26_linear_1775_52762)"/>
</g>
<g clip-path="url(#clip7_1775_52762)">
<path d="M277.084 270.527L266.039 233.324L255.97 238.465L245.111 244.027L234.995 249.168L222.419 255.618L214.066 259.918L219.124 277.023L228.452 275.995L242.512 274.406L253.742 273.144L265.854 271.789L277.084 270.527Z" fill="url(#paint27_linear_1775_52762)"/>
<path d="M284.137 275.574L269.194 225.191L264.09 226.734L279.032 277.116L284.137 275.574Z" fill="url(#paint28_linear_1775_52762)"/>
<path d="M277.083 270.527L266.039 233.324L255.969 238.465L265.853 271.789L277.083 270.527Z" fill="url(#paint29_linear_1775_52762)"/>
<path d="M253.744 273.145L245.112 244.027L234.996 249.168L242.514 274.407L253.744 273.145Z" fill="url(#paint30_linear_1775_52762)"/>
<path d="M228.452 275.995L222.419 255.617L214.066 259.917L219.124 277.023L228.452 275.995Z" fill="url(#paint31_linear_1775_52762)"/>
</g>
</g>
<defs>
<filter id="filter0_d_1775_52762" x="77.6953" y="-0.792969" width="344.58" height="249.341" filterUnits="userSpaceOnUse" color-interpolation-filters="sRGB">
<feFlood flood-opacity="0" result="BackgroundImageFix"/>
<feColorMatrix in="SourceAlpha" type="matrix" values="0 0 0 0 0 0 0 0 0 0 0 0 0 0 0 0 0 0 127 0" result="hardAlpha"/>
<feOffset dx="2" dy="2"/>
<feGaussianBlur stdDeviation="4"/>
<feComposite in2="hardAlpha" operator="out"/>
<feColorMatrix type="matrix" values="0 0 0 0 0.0420658 0 0 0 0 0.0420658 0 0 0 0 0.184679 0 0 0 0.15 0"/>
<feBlend mode="normal" in2="BackgroundImageFix" result="effect1_dropShadow_1775_52762"/>
<feBlend mode="normal" in="SourceGraphic" in2="effect1_dropShadow_1775_52762" result="shape"/>
</filter>
<filter id="filter1_d_1775_52762" x="12.9766" y="28.541" width="228.178" height="260.896" filterUnits="userSpaceOnUse" color-interpolation-filters="sRGB">
<feFlood flood-opacity="0" result="BackgroundImageFix"/>
<feColorMatrix in="SourceAlpha" type="matrix" values="0 0 0 0 0 0 0 0 0 0 0 0 0 0 0 0 0 0 127 0" result="hardAlpha"/>
<feOffset dx="4" dy="4"/>
<feGaussianBlur stdDeviation="4"/>
<feComposite in2="hardAlpha" operator="out"/>
<feColorMatrix type="matrix" values="0 0 0 0 0.0420658 0 0 0 0 0.0420658 0 0 0 0 0.184679 0 0 0 0.3 0"/>
<feBlend mode="normal" in2="BackgroundImageFix" result="effect1_dropShadow_1775_52762"/>
<feBlend mode="normal" in="SourceGraphic" in2="effect1_dropShadow_1775_52762" result="shape"/>
</filter>
<filter id="filter2_d_1775_52762" x="310.846" y="210.861" width="67.6465" height="78.5322" filterUnits="userSpaceOnUse" color-interpolation-filters="sRGB">
<feFlood flood-opacity="0" result="BackgroundImageFix"/>
<feColorMatrix in="SourceAlpha" type="matrix" values="0 0 0 0 0 0 0 0 0 0 0 0 0 0 0 0 0 0 127 0" result="hardAlpha"/>
<feOffset dx="4" dy="4"/>
<feGaussianBlur stdDeviation="4"/>
<feComposite in2="hardAlpha" operator="out"/>
<feColorMatrix type="matrix" values="0 0 0 0 0.0420658 0 0 0 0 0.0420658 0 0 0 0 0.184679 0 0 0 0.3 0"/>
<feBlend mode="normal" in2="BackgroundImageFix" result="effect1_dropShadow_1775_52762"/>
<feBlend mode="normal" in="SourceGraphic" in2="effect1_dropShadow_1775_52762" result="shape"/>
</filter>
<filter id="filter3_d_1775_52762" x="210.066" y="221.191" width="86.0703" height="67.9248" filterUnits="userSpaceOnUse" color-interpolation-filters="sRGB">
<feFlood flood-opacity="0" result="BackgroundImageFix"/>
<feColorMatrix in="SourceAlpha" type="matrix" values="0 0 0 0 0 0 0 0 0 0 0 0 0 0 0 0 0 0 127 0" result="hardAlpha"/>
<feOffset dx="4" dy="4"/>
<feGaussianBlur stdDeviation="4"/>
<feComposite in2="hardAlpha" operator="out"/>
<feColorMatrix type="matrix" values="0 0 0 0 0.0420658 0 0 0 0 0.0420658 0 0 0 0 0.184679 0 0 0 0.3 0"/>
<feBlend mode="normal" in2="BackgroundImageFix" result="effect1_dropShadow_1775_52762"/>
<feBlend mode="normal" in="SourceGraphic" in2="effect1_dropShadow_1775_52762" result="shape"/>
</filter>
<linearGradient id="paint0_linear_1775_52762" x1="343.268" y1="121.174" x2="7.88996" y2="127.604" gradientUnits="userSpaceOnUse">
<stop offset="0.129" stop-color="#696CFF"/>
<stop offset="0.999" stop-color="#4B4EB6"/>
</linearGradient>
<linearGradient id="paint1_linear_1775_52762" x1="514.338" y1="219.057" x2="364.528" y2="-27.2243" gradientUnits="userSpaceOnUse">
<stop stop-color="#2A2A64"/>
<stop offset="1" stop-color="#141430"/>
</linearGradient>
<linearGradient id="paint2_linear_1775_52762" x1="122.339" y1="577.328" x2="122.339" y2="-50.7564" gradientUnits="userSpaceOnUse">
<stop stop-color="#FFCEC5"/>
<stop offset="1" stop-color="#FFAB9D"/>
</linearGradient>
<linearGradient id="paint3_linear_1775_52762" x1="182.368" y1="77.0298" x2="82.0788" y2="290.182" gradientUnits="userSpaceOnUse">
<stop stop-color="#C4C5FF"/>
<stop offset="1" stop-color="#A4A6FF"/>
</linearGradient>
<linearGradient id="paint4_linear_1775_52762" x1="118.401" y1="188.033" x2="350.677" y2="319.49" gradientUnits="userSpaceOnUse">
<stop stop-color="#FFB316"/>
<stop offset="1" stop-color="#D18C01"/>
</linearGradient>
<linearGradient id="paint5_linear_1775_52762" x1="16.9315" y1="154.759" x2="229.187" y2="154.759" gradientUnits="userSpaceOnUse">
<stop stop-color="#FFB316"/>
<stop offset="1" stop-color="#D18C01"/>
</linearGradient>
<linearGradient id="paint6_linear_1775_52762" x1="176.287" y1="265.876" x2="104.312" y2="269.89" gradientUnits="userSpaceOnUse">
<stop offset="0.129" stop-color="#696CFF"/>
<stop offset="0.999" stop-color="#4B4EB6"/>
</linearGradient>
<linearGradient id="paint7_linear_1775_52762" x1="179.61" y1="228.067" x2="106.068" y2="190.082" gradientUnits="userSpaceOnUse">
<stop stop-color="#2A2A64"/>
<stop offset="1" stop-color="#141430"/>
</linearGradient>
<linearGradient id="paint8_linear_1775_52762" x1="113.011" y1="88.288" x2="113.011" y2="63.4006" gradientUnits="userSpaceOnUse">
<stop stop-color="#FFCEC5"/>
<stop offset="1" stop-color="#FFAB9D"/>
</linearGradient>
<linearGradient id="paint9_linear_1775_52762" x1="121.305" y1="84.5972" x2="97.9573" y2="140.644" gradientUnits="userSpaceOnUse">
<stop stop-color="#C4C5FF"/>
<stop offset="1" stop-color="#A4A6FF"/>
</linearGradient>
<linearGradient id="paint10_linear_1775_52762" x1="115.346" y1="49.9359" x2="137.791" y2="72.4047" gradientUnits="userSpaceOnUse">
<stop stop-color="#FFB316"/>
<stop offset="1" stop-color="#D18C01"/>
</linearGradient>
<linearGradient id="paint11_linear_1775_52762" x1="101.396" y1="50.8792" x2="147.801" y2="50.8792" gradientUnits="userSpaceOnUse">
<stop stop-color="#FFB316"/>
<stop offset="1" stop-color="#D18C01"/>
</linearGradient>
<linearGradient id="paint12_linear_1775_52762" x1="366.508" y1="246.131" x2="314.833" y2="246.131" gradientUnits="userSpaceOnUse">
<stop stop-color="white"/>
<stop offset="1" stop-color="#EEEEEE"/>
</linearGradient>
<linearGradient id="paint13_linear_1775_52762" x1="366.497" y1="246.269" x2="314.846" y2="246.269" gradientUnits="userSpaceOnUse">
<stop stop-color="#FFB316"/>
<stop offset="1" stop-color="#D18C01"/>
</linearGradient>
<linearGradient id="paint14_linear_1775_52762" x1="366.508" y1="246.205" x2="314.833" y2="246.205" gradientUnits="userSpaceOnUse">
<stop stop-color="#FFB316"/>
<stop offset="1" stop-color="#D18C01"/>
</linearGradient>
<linearGradient id="paint15_linear_1775_52762" x1="366.468" y1="246.146" x2="314.876" y2="246.146" gradientUnits="userSpaceOnUse">
<stop stop-color="#FFB316"/>
<stop offset="1" stop-color="#D18C01"/>
</linearGradient>
<linearGradient id="paint16_linear_1775_52762" x1="351.099" y1="219.464" x2="330.242" y2="219.464" gradientUnits="userSpaceOnUse">
<stop stop-color="#FFB316"/>
<stop offset="1" stop-color="#D18C01"/>
</linearGradient>
<linearGradient id="paint17_linear_1775_52762" x1="359.755" y1="243.47" x2="321.584" y2="243.47" gradientUnits="userSpaceOnUse">
<stop stop-color="white"/>
<stop offset="1" stop-color="#EEEEEE"/>
</linearGradient>
<linearGradient id="paint18_linear_1775_52762" x1="366.497" y1="274.744" x2="314.846" y2="274.744" gradientUnits="userSpaceOnUse">
<stop stop-color="#FFB316"/>
<stop offset="1" stop-color="#D18C01"/>
</linearGradient>
<linearGradient id="paint19_linear_1775_52762" x1="359.755" y1="266.531" x2="321.584" y2="266.531" gradientUnits="userSpaceOnUse">
<stop stop-color="#FFB316"/>
<stop offset="1" stop-color="#D18C01"/>
</linearGradient>
<linearGradient id="paint20_linear_1775_52762" x1="355.598" y1="243.47" x2="325.744" y2="243.47" gradientUnits="userSpaceOnUse">
<stop stop-color="#FFB316"/>
<stop offset="1" stop-color="#D18C01"/>
</linearGradient>
<linearGradient id="paint21_linear_1775_52762" x1="351.099" y1="219.464" x2="330.242" y2="219.464" gradientUnits="userSpaceOnUse">
<stop stop-color="#FFB316"/>
<stop offset="1" stop-color="#D18C01"/>
</linearGradient>
<linearGradient id="paint22_linear_1775_52762" x1="241.287" y1="235.051" x2="255.329" y2="278.73" gradientUnits="userSpaceOnUse">
<stop stop-color="white"/>
<stop offset="1" stop-color="#EEEEEE"/>
</linearGradient>
<linearGradient id="paint23_linear_1775_52762" x1="222.984" y1="226.007" x2="227.672" y2="280.485" gradientUnits="userSpaceOnUse">
<stop stop-color="#FFB316"/>
<stop offset="1" stop-color="#D18C01"/>
</linearGradient>
<linearGradient id="paint24_linear_1775_52762" x1="229.767" y1="227.396" x2="236.368" y2="281.34" gradientUnits="userSpaceOnUse">
<stop stop-color="#FFB316"/>
<stop offset="1" stop-color="#D18C01"/>
</linearGradient>
<linearGradient id="paint25_linear_1775_52762" x1="231.841" y1="228.014" x2="239.162" y2="281.228" gradientUnits="userSpaceOnUse">
<stop stop-color="#FFB316"/>
<stop offset="1" stop-color="#D18C01"/>
</linearGradient>
<linearGradient id="paint26_linear_1775_52762" x1="217.991" y1="257.003" x2="224.105" y2="277.326" gradientUnits="userSpaceOnUse">
<stop stop-color="#FFB316"/>
<stop offset="1" stop-color="#D18C01"/>
</linearGradient>
<linearGradient id="paint27_linear_1775_52762" x1="238.547" y1="241.622" x2="249.736" y2="278.815" gradientUnits="userSpaceOnUse">
<stop stop-color="white"/>
<stop offset="1" stop-color="#EEEEEE"/>
</linearGradient>
<linearGradient id="paint28_linear_1775_52762" x1="266.641" y1="226.007" x2="281.781" y2="276.334" gradientUnits="userSpaceOnUse">
<stop stop-color="#FFB316"/>
<stop offset="1" stop-color="#D18C01"/>
</linearGradient>
<linearGradient id="paint29_linear_1775_52762" x1="260.7" y1="234.958" x2="271.888" y2="272.15" gradientUnits="userSpaceOnUse">
<stop stop-color="#FFB316"/>
<stop offset="1" stop-color="#D18C01"/>
</linearGradient>
<linearGradient id="paint30_linear_1775_52762" x1="239.752" y1="245.679" x2="248.503" y2="274.769" gradientUnits="userSpaceOnUse">
<stop stop-color="#FFB316"/>
<stop offset="1" stop-color="#D18C01"/>
</linearGradient>
<linearGradient id="paint31_linear_1775_52762" x1="217.991" y1="257.003" x2="224.105" y2="277.326" gradientUnits="userSpaceOnUse">
<stop stop-color="#FFB316"/>
<stop offset="1" stop-color="#D18C01"/>
</linearGradient>
<clipPath id="clip0_1775_52762">
<rect width="446" height="286" fill="white"/>
</clipPath>
<clipPath id="clip1_1775_52762">
<rect width="328.579" height="233.383" fill="white" transform="translate(83.6953 5.20703)"/>
</clipPath>
<clipPath id="clip2_1775_52762">
<rect width="295.079" height="35.175" fill="white" transform="translate(93.4648 184.434)"/>
</clipPath>
<clipPath id="clip3_1775_52762">
<rect width="188.438" height="113.062" fill="white" transform="translate(200.945 45.4082)"/>
</clipPath>
<clipPath id="clip4_1775_52762">
<rect width="102.733" height="71.4667" fill="white" transform="translate(295.305 35.6387)"/>
</clipPath>
<clipPath id="clip5_1775_52762">
<rect width="212.167" height="244.829" fill="white" transform="translate(16.9746 32.5664)"/>
</clipPath>
<clipPath id="clip6_1775_52762">
<rect width="51.6458" height="62.5333" fill="white" transform="translate(314.846 214.861)"/>
</clipPath>
<clipPath id="clip7_1775_52762">
<rect width="70.0708" height="51.925" fill="white" transform="translate(214.066 225.191)"/>
</clipPath>
</defs>
</svg>
