<svg width="795" height="365" viewBox="0 0 795 365" fill="none" xmlns="http://www.w3.org/2000/svg">
<g clip-path="url(#clip0_1500_8343)">
<path d="M683 141.901C643.6 144.301 661.3 195.701 704.9 193.001C747.5 190.301 725 139.301 683 141.901Z" fill="#F19021"/>
<path d="M666.4 110.2C596.3 110.2 539.4 167.1 539.4 237.2C539.4 307.3 596.3 364.2 666.4 364.2C736.5 364.2 793.4 307.3 793.4 237.2C793.4 167 736.5 110.2 666.4 110.2ZM666.4 350.9C603.6 350.9 552.7 300 552.7 237.3C552.7 174.6 603.6 123.6 666.3 123.6C729 123.6 780 174.4 780 237.2C780 300 729.1 350.9 666.4 350.9ZM662.5 21.5004C632.3 44.3004 637.6 79.2004 637.6 79.2004C637.6 79.2004 618.6 30.0004 594 -0.0996094C590.7 38.6004 602.8 89.9004 602.8 89.9004C602.8 89.9004 587.4 58.1004 549.6 56.3004C580.9 74.3004 593.1 106.7 595.8 115.4C614.5 103.9 635.8 97.4004 657.7 96.7004C655.4 88.7004 646.6 54.6004 662.5 21.5004Z" fill="#F19021"/>
<path d="M11.1 249.601V276.201H0V207.701H23.3C31.2 207.701 37.1 209.601 41.1 213.301C45.1 217.001 47.1 222.201 47.1 228.701C47.1 235.201 45.1 240.301 41 244.001C36.9 247.701 31 249.601 23.4 249.601H11.1ZM35.8 228.801C35.8 224.901 34.7 222.001 32.6 219.901C30.4 217.901 27 216.801 22.2 216.801H11.1V240.601H22.2C31.2 240.601 35.8 236.701 35.8 228.801ZM92.7 276.201L75.6 248.801H67.7V276.201H56.7V207.701H80.9C88.7 207.701 94.7 209.601 98.7 213.401C102.7 217.201 104.8 222.301 104.8 228.501C104.8 233.801 103.3 238.201 100.3 241.701C97.3 245.201 93 247.401 87.3 248.301L105.3 276.101H92.7V276.201ZM67.8 241.001H80C88.9 241.001 93.4 237.101 93.4 229.201C93.4 225.501 92.3 222.501 90.2 220.401C88 218.301 84.7 217.301 80.1 217.301H67.8V241.001ZM155.6 261.401H126.7L121.5 276.201H109.7L134.9 208.801H147.6L172.7 276.201H160.9L155.6 261.401ZM152.5 252.801L141.1 220.801L129.7 252.801H152.5ZM228.5 213.201C233.9 217.201 237.7 223.001 239.3 229.601H227.7C226.2 226.001 223.7 222.901 220.4 220.801C216.8 218.501 212.6 217.401 208.3 217.501C204.3 217.401 200.3 218.501 196.8 220.501C193.4 222.501 190.6 225.501 188.9 229.001C186.9 233.101 186 237.501 186.1 242.001C186 246.701 187 251.301 189 255.501C190.8 259.101 193.7 262.101 197.2 264.101C201 266.101 205.2 267.201 209.5 267.101C214.9 267.201 220.1 265.301 224.1 261.701C228.2 258.201 230.6 253.301 231.5 247.201H206.4V239.101H240.8V249.701C240.1 254.601 238.2 259.301 235.4 263.401C232.5 267.501 228.7 270.9 224.3 273.3C219.4 275.8 213.9 277.101 208.4 277.001C202.2 277.101 196.1 275.601 190.7 272.501C185.7 269.601 181.5 265.301 178.9 260.101C173.3 248.701 173.3 235.301 178.9 223.901C181.6 218.801 185.7 214.501 190.7 211.601C196.1 208.601 202.2 207.101 208.3 207.201C216.3 207.201 223.1 209.201 228.5 213.201ZM318.7 208.801V276.201H307.5V225.701L288 276.201H278.3L258.7 225.701V276.201H247.6V208.801H261L283.3 262.601L305.2 208.801H318.7ZM372.9 261.401H344L338.8 276.201H326.9L352.1 208.801H364.8L389.9 276.201H378.1L372.9 261.401ZM369.8 252.801L358.4 220.801L347 252.801H369.8ZM437.3 207.701V216.601H418.2V276.201H407V216.601H388V207.701H437.3ZM454.2 207.701V276.201H443.2V207.701H454.2ZM516.8 213.401C522.4 217.701 526.4 223.901 528 230.801H516.3C514.8 226.801 512.1 223.401 508.6 220.901C504.8 218.401 500.2 217.101 495.6 217.301C491.8 217.201 488 218.301 484.7 220.301C481.4 222.401 478.8 225.401 477.1 228.901C473.4 237.201 473.4 246.601 477.1 254.901C478.8 258.401 481.4 261.401 484.7 263.501C488 265.501 491.8 266.601 495.6 266.501C500.2 266.701 504.7 265.401 508.6 262.901C512.1 260.501 514.8 257.101 516.3 253.101H528C526.3 260.001 522.4 266.101 516.8 270.401C511.2 274.601 504.3 276.8 495.8 276.8C489.8 276.9 483.8 275.401 478.6 272.401C473.6 269.501 469.6 265.201 467.1 260.101C461.7 248.701 461.7 235.401 467.1 223.901C469.7 218.801 473.7 214.501 478.6 211.501C483.8 208.501 489.7 206.901 495.8 207.001C504.3 207.001 511.2 209.201 516.8 213.401ZM580.2 249.601V276.201H569.2V207.701H592.5C600.4 207.701 606.3 209.601 610.3 213.301C614.3 217.001 616.3 222.201 616.3 228.701C616.3 235.201 614.3 240.301 610.2 244.001C606.1 247.701 600.2 249.601 592.5 249.601H580.2ZM605 228.801C605 224.901 603.9 222.001 601.8 219.901C599.6 217.901 596.2 216.801 591.4 216.801H580.3V240.601H591.4C600.4 240.601 605 236.701 605 228.801ZM635.2 267.601H658.9V276.201H624.2V207.701H635.3V267.601H635.2ZM709.5 261.401H680.6L675.4 276.201H663.6L688.8 208.801H701.5L726.6 276.201H714.8L709.5 261.401ZM706.4 252.801L695.1 220.801L683.8 252.801H706.4ZM771 207.701L748.2 251.301V276.201H737.1V251.301L714.2 207.701H727L742.7 239.401L758.4 207.701H771Z" fill="#222325"/>
</g>
<defs>
<clipPath id="clip0_1500_8343">
<rect width="794.1" height="364.2" fill="white"/>
</clipPath>
</defs>
</svg>
