<svg width="22" height="22" viewBox="0 0 22 22" fill="none" xmlns="http://www.w3.org/2000/svg">
<path id="Vector" d="M21.8332 10.9998C21.8332 16.9877 16.9877 21.8332 10.9998 21.8332C5.01196 21.8332 0.166504 16.9877 0.166504 10.9998C0.166504 5.01196 5.01196 0.166504 10.9998 0.166504C16.9877 0.166504 21.8332 5.01196 21.8332 10.9998ZM11.9847 3.18014C14.0824 3.44605 15.993 4.54908 17.2733 6.23317L18.987 5.24832C18.1777 4.1073 17.1347 3.15176 15.9273 2.44533C14.7199 1.7389 13.3759 1.29778 11.9847 1.15135V3.18014ZM3.01272 5.24832L4.72635 6.23317C5.36121 5.39883 6.15579 4.69919 7.06377 4.17502C7.97175 3.65086 8.97498 3.31266 10.015 3.18014V1.15135C8.62381 1.29778 7.27978 1.7389 6.0724 2.44533C4.86501 3.15176 3.82197 4.1073 3.01272 5.24832ZM2.02787 15.0377L3.73165 14.0529C3.32698 13.0859 3.11858 12.0481 3.11858 10.9998C3.11858 9.95158 3.32698 8.91379 3.73165 7.94681L2.02787 6.96196C1.44869 8.2293 1.14893 9.60642 1.14893 10.9998C1.14893 12.3933 1.44869 13.7704 2.02787 15.0377ZM10.015 18.8195C8.97498 18.687 7.97175 18.3488 7.06377 17.8246C6.15579 17.3005 5.36121 16.6008 4.72635 15.7665L3.01272 16.7514C3.82197 17.8924 4.86501 18.8479 6.0724 19.5543C7.27978 20.2608 8.62381 20.7019 10.015 20.8483V18.8195ZM18.987 16.7514L17.2733 15.7665C16.6385 16.6008 15.8439 17.3005 14.9359 17.8246C14.0279 18.3488 13.0247 18.687 11.9847 18.8195V20.7892C14.7915 20.5036 17.3423 19.0362 18.987 16.7514ZM19.9718 15.0377C21.1438 12.4771 21.1438 9.52256 19.9718 6.96196L18.268 7.94681C18.6727 8.91379 18.8811 9.95158 18.8811 10.9998C18.8811 12.0481 18.6727 13.0859 18.268 14.0529L19.9718 15.0377ZM13.9544 10.9998L10.9998 6.07559L8.04529 10.9998L10.9998 15.9241L13.9544 10.9998Z" fill="#696CFF"/>
</svg>
