<svg width="22" height="20" viewBox="0 0 22 20" fill="none" xmlns="http://www.w3.org/2000/svg">
<path id="Vector" d="M4.1059 9.99985L6.07559 6.06046V5.07561H3.12105V6.06046H5.09075L3.12105 9.99985M8.04529 9.99985L10.015 6.06046V5.07561H7.06044V6.06046H9.03014L7.06044 9.99985M11.9847 9.99985L13.9544 6.06046V5.07561H10.9998V6.06046H12.9695L10.9998 9.99985M19.8635 0.151367C18.7801 0.151367 17.8938 1.03773 17.8938 2.12106C17.8938 2.81046 18.2877 3.49985 18.8786 3.79531V14.9241H15.9241V12.9544C16.515 12.9544 16.9089 12.5605 16.9089 11.9695V3.10591C16.9089 2.515 16.515 2.12106 15.9241 2.12106H12.1817C11.3938 0.939246 10.015 0.151367 8.53771 0.151367C7.06044 0.151367 5.68165 0.939246 4.89378 2.12106H1.15135C0.560443 2.12106 0.166504 2.515 0.166504 3.10591V11.9695C0.166504 12.5605 0.560443 12.9544 1.15135 12.9544V19.8483H15.9241V16.8938H18.8786C19.962 16.8938 20.8483 16.0074 20.8483 14.9241V3.79531C21.4392 3.49985 21.8332 2.81046 21.8332 2.12106C21.8332 1.03773 20.9468 0.151367 19.8635 0.151367ZM11.9847 16.8938H5.09075V14.9241H11.9847V16.8938ZM14.9392 10.9847H2.1362V4.09076H14.9392V10.9847Z" fill="#03C3EC"/>
</svg>
