<svg width="34" height="34" viewBox="0 0 34 34" fill="none" xmlns="http://www.w3.org/2000/svg">
<rect x="3" y="3" width="28" height="28" rx="14" fill="#03C3EC"/>
<rect x="1.5" y="1.5" width="31" height="31" rx="15.5" stroke="#03C3EC" stroke-opacity="0.4" stroke-width="3"/>
<path d="M17.0005 9.5C15.6968 9.50165 14.447 10.0203 13.5251 10.9421C12.6033 11.864 12.0847 13.1138 12.083 14.4175H14.583C14.583 13.0838 15.668 12 17.0005 12C18.333 12 19.418 13.0838 19.418 14.4175C19.418 15.165 18.8168 15.7075 17.898 16.45C17.5979 16.6851 17.3096 16.935 17.0343 17.1988C15.7868 18.445 15.7505 19.7688 15.7505 19.9163V20.75H18.2505L18.2493 19.9587C18.2505 19.9387 18.2905 19.4763 18.8005 18.9675C18.988 18.78 19.2243 18.5925 19.4693 18.395C20.443 17.6062 21.9168 16.415 21.9168 14.4175C21.9158 13.1138 21.3975 11.8638 20.4758 10.9418C19.5541 10.0199 18.3042 9.50132 17.0005 9.5ZM15.7505 22H18.2505V24.5H15.7505V22Z" fill="white"/>
</svg>
