<svg width="96" height="96" viewBox="0 0 96 96" fill="none" xmlns="http://www.w3.org/2000/svg">
<g filter="url(#filter0_d_1286_8541)">
<g clip-path="url(#clip0_1286_8541)">
<g filter="url(#filter1_d_1286_8541)">
<path d="M31.48 30.7805L7.04004 47.4005L31.48 63.1205V78.5805L52.64 66.4605L56.7 69.2405L74.2 59.2605V54.1405L86.72 47.0005L74.18 39.8605V34.9805L56.7 24.9005L52.62 27.5605L31.48 15.4805V30.7805Z" fill="white"/>
</g>
<path d="M31.9325 30.3877L7 47.3649L31.9325 63.4397V30.3877Z" fill="url(#paint0_linear_1286_8541)"/>
<path d="M52.5182 27.5171L56.7009 24.8105V29.8955L52.5182 27.5171Z" fill="url(#paint1_linear_1286_8541)"/>
<path d="M52.6003 66.474L56.7831 63.7676L56.7011 69.2626L52.6003 66.474Z" fill="url(#paint2_linear_1286_8541)"/>
<path d="M31.4406 78.6124V15.3789L86.8006 46.9546L31.4406 78.6124Z" fill="url(#paint3_radial_1286_8541)"/>
<path d="M73.5961 54.4999L73.6781 39.4551L86.8005 46.9543L73.5961 54.4999Z" fill="#5143EC"/>
<path d="M74.2522 34.8984L56.7009 24.8105V69.2627L74.2522 59.2567V34.8984Z" fill="url(#paint4_linear_1286_8541)"/>
</g>
</g>
<defs>
<filter id="filter0_d_1286_8541" x="0" y="0" width="96" height="96" filterUnits="userSpaceOnUse" color-interpolation-filters="sRGB">
<feFlood flood-opacity="0" result="BackgroundImageFix"/>
<feColorMatrix in="SourceAlpha" type="matrix" values="0 0 0 0 0 0 0 0 0 0 0 0 0 0 0 0 0 0 127 0" result="hardAlpha"/>
<feOffset dx="1" dy="1"/>
<feGaussianBlur stdDeviation="4"/>
<feComposite in2="hardAlpha" operator="out"/>
<feColorMatrix type="matrix" values="0 0 0 0 0.333512 0 0 0 0 0.367215 0 0 0 0 0.693012 0 0 0 0.7 0"/>
<feBlend mode="normal" in2="BackgroundImageFix" result="effect1_dropShadow_1286_8541"/>
<feBlend mode="normal" in="SourceGraphic" in2="effect1_dropShadow_1286_8541" result="shape"/>
</filter>
<filter id="filter1_d_1286_8541" x="0.0400391" y="8.48047" width="95.68" height="79.1001" filterUnits="userSpaceOnUse" color-interpolation-filters="sRGB">
<feFlood flood-opacity="0" result="BackgroundImageFix"/>
<feColorMatrix in="SourceAlpha" type="matrix" values="0 0 0 0 0 0 0 0 0 0 0 0 0 0 0 0 0 0 127 0" result="hardAlpha"/>
<feOffset dx="1" dy="1"/>
<feGaussianBlur stdDeviation="4"/>
<feComposite in2="hardAlpha" operator="out"/>
<feColorMatrix type="matrix" values="0 0 0 0 0.333512 0 0 0 0 0.367215 0 0 0 0 0.693012 0 0 0 0.7 0"/>
<feBlend mode="normal" in2="BackgroundImageFix" result="effect1_dropShadow_1286_8541"/>
<feBlend mode="normal" in="SourceGraphic" in2="effect1_dropShadow_1286_8541" result="shape"/>
</filter>
<linearGradient id="paint0_linear_1286_8541" x1="31.9325" y1="48.021" x2="7" y2="48.021" gradientUnits="userSpaceOnUse">
<stop stop-color="#FFAB00"/>
<stop offset="0.676667" stop-color="#FFF0D2"/>
<stop offset="1" stop-color="#FFF0D2"/>
</linearGradient>
<linearGradient id="paint1_linear_1286_8541" x1="52.4362" y1="27.5991" x2="56.7009" y2="27.5991" gradientUnits="userSpaceOnUse">
<stop offset="0.495" stop-color="#A3A5FF"/>
<stop offset="1" stop-color="#6E70FF"/>
</linearGradient>
<linearGradient id="paint2_linear_1286_8541" x1="52.5181" y1="66.7808" x2="56.7831" y2="66.7808" gradientUnits="userSpaceOnUse">
<stop offset="0.495" stop-color="#A3A5FF"/>
<stop offset="1" stop-color="#6E70FF"/>
</linearGradient>
<radialGradient id="paint3_radial_1286_8541" cx="0" cy="0" r="1" gradientUnits="userSpaceOnUse" gradientTransform="translate(47.5974 47.0366) rotate(117.038) scale(35.5423 31.1168)">
<stop stop-color="#686DFF"/>
<stop offset="0.52" stop-color="#6669FD"/>
<stop offset="1" stop-color="#5247EE"/>
</radialGradient>
<linearGradient id="paint4_linear_1286_8541" x1="56.7009" y1="26.0408" x2="65.3946" y2="61.1432" gradientUnits="userSpaceOnUse">
<stop stop-color="#E7E7FF"/>
<stop offset="1" stop-color="#A9A9FF"/>
</linearGradient>
<clipPath id="clip0_1286_8541">
<rect width="80" height="80" fill="white" transform="translate(7 7)"/>
</clipPath>
</defs>
</svg>
