<svg width="57" height="56" viewBox="0 0 57 56" fill="none" xmlns="http://www.w3.org/2000/svg">
<rect x="0.5" width="56" height="56" rx="6" fill="#F3F3FF"/>
<path d="M35.1667 27.998H38.5001V34.6647H35.1667V27.998Z" fill="#696CFF"/>
<path d="M41.8333 19.6647V16.3314C41.8333 14.493 40.3383 12.998 38.4999 12.998H16.8333C14.0766 12.998 11.8333 15.2414 11.8333 17.998V37.998C11.8333 41.6664 14.8233 42.998 16.8333 42.998H41.8333C43.6716 42.998 45.1666 41.503 45.1666 39.6647V22.998C45.1666 21.1597 43.6716 19.6647 41.8333 19.6647ZM16.8333 16.3314H38.4999V19.6647H16.8333C16.4041 19.6455 15.9989 19.4615 15.702 19.1511C15.4052 18.8406 15.2395 18.4276 15.2395 17.998C15.2395 17.5685 15.4052 17.1555 15.702 16.845C15.9989 16.5346 16.4041 16.3506 16.8333 16.3314ZM41.8333 39.6647H16.8533C16.0833 39.6447 15.1666 39.3397 15.1666 37.998V22.6897C15.6899 22.878 16.2449 22.998 16.8333 22.998H41.8333V39.6647Z" fill="#696CFF"/>
</svg>
