<svg width="56" height="56" viewBox="0 0 56 56" fill="none" xmlns="http://www.w3.org/2000/svg">
<rect width="56" height="56" rx="6" fill="#FFF1EE"/>
<path d="M41.3333 19.6673H39.3183C39.5627 18.857 39.6802 18.0136 39.6666 17.1673C39.6666 13.9507 37.0499 11.334 33.8333 11.334C31.1299 11.334 29.3249 13.804 28.1599 16.4757C27.0116 13.9507 25.1149 11.334 22.1666 11.334C18.9499 11.334 16.3333 13.9507 16.3333 17.1673C16.3333 18.1607 16.4649 18.9823 16.6816 19.6673H14.6666C12.8283 19.6673 11.3333 21.1623 11.3333 23.0007V26.334C11.3333 28.1723 12.8283 29.6673 14.6666 29.6673V41.334C14.6666 43.1723 16.1616 44.6673 17.9999 44.6673H37.9999C39.8383 44.6673 41.3333 43.1723 41.3333 41.334V29.6673C43.1716 29.6673 44.6666 28.1723 44.6666 26.334V23.0007C44.6666 21.1623 43.1716 19.6673 41.3333 19.6673ZM33.8333 14.6673C35.2116 14.6673 36.3333 15.789 36.3333 17.1673C36.3333 19.6673 35.2899 19.6673 34.6666 19.6673H30.5366C31.3883 17.0407 32.6249 14.6673 33.8333 14.6673ZM19.6666 17.1673C19.6666 15.789 20.7883 14.6673 22.1666 14.6673C23.6466 14.6673 25.0233 17.209 25.8299 19.6673H21.3333C20.7099 19.6673 19.6666 19.6673 19.6666 17.1673ZM14.6666 23.0007H26.3333V26.334H14.6666V23.0007ZM17.9999 41.334V29.6673H26.3333V41.334H17.9999ZM37.9999 41.334H29.6666V29.6673H37.9999V41.334ZM29.6666 26.334V23.1423L29.6949 23.0007H41.3333L41.3349 26.334H29.6666Z" fill="#FF3E1D"/>
</svg>
