<svg width="56" height="56" viewBox="0 0 56 56" fill="none" xmlns="http://www.w3.org/2000/svg">
<path d="M16.3333 25.667H20.9999V30.3337H16.3333V25.667ZM16.3333 35.0003H20.9999V39.667H16.3333V35.0003ZM25.6666 25.667H30.3333V30.3337H25.6666V25.667ZM25.6666 35.0003H30.3333V39.667H25.6666V35.0003ZM34.9999 25.667H39.6666V30.3337H34.9999V25.667ZM34.9999 35.0003H39.6666V39.667H34.9999V35.0003Z" fill="#696CFF"/>
<path d="M11.6667 51.3337H44.3333C46.907 51.3337 49 49.2407 49 46.667V14.0003C49 11.4267 46.907 9.33366 44.3333 9.33366H39.6667V4.66699H35V9.33366H21V4.66699H16.3333V9.33366H11.6667C9.093 9.33366 7 11.4267 7 14.0003V46.667C7 49.2407 9.093 51.3337 11.6667 51.3337ZM44.3333 18.667L44.3357 46.667H11.6667V18.667H44.3333Z" fill="#696CFF"/>
</svg>
