<svg xmlns="http://www.w3.org/2000/svg" width="18" height="18" viewBox="0 0 27 27" fill="none">
  <g filter="url(#filter0_d_725_11986)">
    <path d="M18.5514 3H7.75137C5.76314 3 4.15137 4.61177 4.15137 6.6V17.4C4.15137 19.3882 5.76314 21 7.75137 21H18.5514C20.5396 21 22.1514 19.3882 22.1514 17.4V6.6C22.1514 4.61177 20.5396 3 18.5514 3Z" fill="#696CFF"/>
  </g>
  <path d="M9.63616 11.5663L9.53426 11.472L9.43235 11.5663L8.54946 12.3837L8.43057 12.4938L8.54946 12.6039L11.4885 15.3248L11.5904 15.4191L11.6923 15.3248L17.7533 9.71359L17.8722 9.60352L17.7533 9.49345L16.8704 8.67607L16.7685 8.58173L16.6666 8.67607L11.5904 13.3756L9.63616 11.5663Z" fill="white" stroke="white" stroke-width="0.3"/>
  <defs>
    <filter id="filter0_d_725_11986" x="0.151367" y="1" width="26" height="26" filterUnits="userSpaceOnUse" color-interpolation-filters="sRGB">
      <feFlood flood-opacity="0" result="BackgroundImageFix"/>
      <feColorMatrix in="SourceAlpha" type="matrix" values="0 0 0 0 0 0 0 0 0 0 0 0 0 0 0 0 0 0 127 0" result="hardAlpha"/>
      <feOffset dy="2"/>
      <feGaussianBlur stdDeviation="2"/>
      <feComposite in2="hardAlpha" operator="out"/>
      <feColorMatrix type="matrix" values="0 0 0 0 0.411765 0 0 0 0 0.423529 0 0 0 0 1 0 0 0 0.4 0"/>
      <feBlend mode="normal" in2="BackgroundImageFix" result="effect1_dropShadow_725_11986"/>
      <feBlend mode="normal" in="SourceGraphic" in2="effect1_dropShadow_725_11986" result="shape"/>
    </filter>
  </defs>
</svg>