<svg width="24" height="25" viewBox="0 0 24 25" fill="none" xmlns="http://www.w3.org/2000/svg">
<path d="M5 20.5C5 21.0304 5.21071 21.5391 5.58579 21.9142C5.96086 22.2893 6.46957 22.5 7 22.5H17C17.5304 22.5 18.0391 22.2893 18.4142 21.9142C18.7893 21.5391 19 21.0304 19 20.5V8.5H21V6.5H17V4.5C17 3.96957 16.7893 3.46086 16.4142 3.08579C16.0391 2.71071 15.5304 2.5 15 2.5H9C8.46957 2.5 7.96086 2.71071 7.58579 3.08579C7.21071 3.46086 7 3.96957 7 4.5V6.5H3V8.5H5V20.5ZM9 4.5H15V6.5H9V4.5ZM8 8.5H17V20.5H7V8.5H8Z" fill="#696CFF"/>
<path d="M9 10.5H11V18.5H9V10.5ZM13 10.5H15V18.5H13V10.5Z" fill="#696CFF"/>
</svg>
