<svg width="57" height="56" viewBox="0 0 57 56" fill="none" xmlns="http://www.w3.org/2000/svg">
<rect x="0.5" width="56" height="56" rx="6" fill="#E5F9FD"/>
<path d="M28.4999 14.667C19.3099 14.667 11.8333 22.1437 11.8333 31.3337C11.8311 33.906 12.431 36.4431 13.5849 38.742C13.8683 39.3087 14.4449 39.667 15.0766 39.667H41.9216C42.5533 39.667 43.1316 39.3087 43.4149 38.742C44.5689 36.4431 45.1688 33.906 45.1666 31.3337C45.1666 22.1437 37.6899 14.667 28.4999 14.667ZM40.8499 36.3337H16.1499C15.4986 34.7472 15.1646 33.0486 15.1666 31.3337C15.1666 23.982 21.1483 18.0003 28.4999 18.0003C35.8516 18.0003 41.8333 23.982 41.8333 31.3337C41.8353 33.0486 41.5012 34.7472 40.8499 36.3337Z" fill="#03C3EC"/>
<path d="M26.7315 29.5647C26.377 29.7966 26.0858 30.1131 25.8842 30.4857C25.6827 30.8583 25.5771 31.2752 25.5771 31.6989C25.5771 32.1225 25.6827 32.5394 25.8842 32.912C26.0858 33.2847 26.377 33.6012 26.7315 33.833C27.0116 34.0174 27.3254 34.1446 27.6548 34.2075C27.9842 34.2704 28.3228 34.2678 28.6511 34.1996C28.9795 34.1315 29.2912 33.9993 29.5684 33.8106C29.8456 33.6218 30.0828 33.3803 30.2665 33.0997L36.8698 23.0364C36.8751 23.0276 36.8779 23.0175 36.8779 23.0072C36.8779 22.9969 36.8751 22.9868 36.8698 22.978C36.862 22.966 36.8497 22.9575 36.8357 22.9544C36.8217 22.9513 36.807 22.9538 36.7948 22.9614L26.7315 29.5647Z" fill="#03C3EC"/>
</svg>
