<svg width="57" height="56" viewBox="0 0 57 56" fill="none" xmlns="http://www.w3.org/2000/svg">
<rect x="0.5" width="56" height="56" rx="6" fill="#F0FCEA"/>
<path d="M43.4999 14.667H13.4999C13.0579 14.667 12.634 14.8426 12.3214 15.1551C12.0088 15.4677 11.8333 15.8916 11.8333 16.3337V39.667C11.8333 40.109 12.0088 40.5329 12.3214 40.8455C12.634 41.1581 13.0579 41.3337 13.4999 41.3337H43.4999C43.9419 41.3337 44.3659 41.1581 44.6784 40.8455C44.991 40.5329 45.1666 40.109 45.1666 39.667V16.3337C45.1666 15.8916 44.991 15.4677 44.6784 15.1551C44.3659 14.8426 43.9419 14.667 43.4999 14.667ZM41.8333 33.0003C40.5072 33.0003 39.2354 33.5271 38.2977 34.4648C37.36 35.4025 36.8333 36.6742 36.8333 38.0003H20.1666C20.1666 36.6742 19.6398 35.4025 18.7021 34.4648C17.7644 33.5271 16.4927 33.0003 15.1666 33.0003V23.0003C16.4927 23.0003 17.7644 22.4735 18.7021 21.5359C19.6398 20.5982 20.1666 19.3264 20.1666 18.0003H36.8333C36.8333 19.3264 37.36 20.5982 38.2977 21.5359C39.2354 22.4735 40.5072 23.0003 41.8333 23.0003V33.0003Z" fill="#82E14F"/>
<path d="M28.4999 21.333C24.8233 21.333 21.8333 24.323 21.8333 27.9997C21.8333 31.6763 24.8233 34.6663 28.4999 34.6663C32.1766 34.6663 35.1666 31.6763 35.1666 27.9997C35.1666 24.323 32.1766 21.333 28.4999 21.333ZM28.4999 31.333C26.6616 31.333 25.1666 29.838 25.1666 27.9997C25.1666 26.1613 26.6616 24.6663 28.4999 24.6663C30.3383 24.6663 31.8333 26.1613 31.8333 27.9997C31.8333 29.838 30.3383 31.333 28.4999 31.333Z" fill="#82E14F"/>
</svg>

