<svg xmlns="http://www.w3.org/2000/svg" width="24" height="24" viewBox="0 0 24 24" fill="none">
<path fill-rule="evenodd" clip-rule="evenodd" d="M17.67 10.7385C17.4591 10.5278 17.1731 10.4095 16.875 10.4095C16.5769 10.4095 16.2909 10.5278 16.08 10.7385L13.125 13.6935V2.625C13.125 2.32663 13.0065 2.04048 12.7955 1.8295C12.5845 1.61853 12.2984 1.5 12 1.5C11.7016 1.5 11.4155 1.61853 11.2045 1.8295C10.9935 2.04048 10.875 2.32663 10.875 2.625V13.6935L7.92 10.7385C7.70674 10.5398 7.42467 10.4316 7.13322 10.4367C6.84176 10.4419 6.56369 10.5599 6.35757 10.7661C6.15145 10.9722 6.03338 11.2503 6.02824 11.5417C6.0231 11.8332 6.13128 12.1152 6.33 12.3285L11.205 17.2035L12 18L12.795 17.205L17.67 12.33C17.7745 12.2255 17.8575 12.1015 17.9141 11.9649C17.9706 11.8284 17.9998 11.682 17.9998 11.5343C17.9998 11.3865 17.9706 11.2401 17.9141 11.1036C17.8575 10.967 17.7745 10.843 17.67 10.7385ZM3.75 14.625C3.75 14.4773 3.7209 14.331 3.66436 14.1945C3.60783 14.058 3.52496 13.934 3.4205 13.8295C3.31603 13.725 3.19201 13.6422 3.05552 13.5856C2.91903 13.5291 2.77274 13.5 2.625 13.5C2.47726 13.5 2.33097 13.5291 2.19448 13.5856C2.05799 13.6422 1.93397 13.725 1.8295 13.8295C1.72504 13.934 1.64217 14.058 1.58564 14.1945C1.5291 14.331 1.5 14.4773 1.5 14.625V19.5C1.5 20.2956 1.81607 21.0587 2.37868 21.6213C2.94129 22.1839 3.70435 22.5 4.5 22.5H19.5C20.2956 22.5 21.0587 22.1839 21.6213 21.6213C22.1839 21.0587 22.5 20.2956 22.5 19.5V14.625C22.5 14.3266 22.3815 14.0405 22.1705 13.8295C21.9595 13.6185 21.6734 13.5 21.375 13.5C21.0766 13.5 20.7905 13.6185 20.5795 13.8295C20.3685 14.0405 20.25 14.3266 20.25 14.625V19.5C20.25 19.6989 20.171 19.8897 20.0303 20.0303C19.8897 20.171 19.6989 20.25 19.5 20.25H4.5C4.30109 20.25 4.11032 20.171 3.96967 20.0303C3.82902 19.8897 3.75 19.6989 3.75 19.5V14.625Z" fill="white"/>
</svg>