<svg width="16" height="16" viewBox="0 0 16 16" fill="none" xmlns="http://www.w3.org/2000/svg">
<g id="boxicon-edit">
<path id="Vector" d="M12.6965 4.93392C12.9485 4.68192 13.0872 4.34725 13.0872 3.99125C13.0872 3.63525 12.9485 3.30059 12.6965 3.04859L11.6392 1.99125C11.3872 1.73925 11.0525 1.60059 10.6965 1.60059C10.3405 1.60059 10.0058 1.73925 9.7545 1.99059L2.6665 9.05659V11.9999H5.6085L12.6965 4.93392ZM10.6965 2.93392L11.7545 3.99059L10.6945 5.04659L9.63717 3.98992L10.6965 2.93392ZM3.99984 10.6666V9.60992L8.69317 4.93125L9.7505 5.98859L5.05784 10.6666H3.99984ZM2.6665 13.3333H13.3332V14.6666H2.6665V13.3333Z" fill="white"/>
</g>
</svg>
