<svg width="32" height="32" viewBox="0 0 32 32" fill="none" xmlns="http://www.w3.org/2000/svg">
<g id="boxicon-edit">
<path id="Vector" d="M25.3935 9.86784C25.8975 9.36384 26.1748 8.69451 26.1748 7.98251C26.1748 7.27051 25.8975 6.60117 25.3935 6.09717L23.2788 3.98251C22.7748 3.47851 22.1055 3.20117 21.3935 3.20117C20.6815 3.20117 20.0122 3.47851 19.5095 3.98117L5.3335 18.1132V23.9998H11.2175L25.3935 9.86784ZM21.3935 5.86784L23.5095 7.98117L21.3895 10.0932L19.2748 7.97984L21.3935 5.86784ZM8.00016 21.3332V19.2198L17.3868 9.86251L19.5015 11.9772L10.1162 21.3332H8.00016ZM5.3335 26.6665H26.6668V29.3332H5.3335V26.6665Z" fill="white"/>
</g>
</svg>
