<svg width="24" height="25" viewBox="0 0 24 25" fill="none" xmlns="http://www.w3.org/2000/svg">
<path d="M19.045 7.90088C19.423 7.52288 19.631 7.02088 19.631 6.48688C19.631 5.95288 19.423 5.45088 19.045 5.07288L17.459 3.48688C17.081 3.10888 16.579 2.90088 16.045 2.90088C15.511 2.90088 15.009 3.10888 14.632 3.48588L4 14.0849V18.4999H8.413L19.045 7.90088ZM16.045 4.90088L17.632 6.48588L16.042 8.06988L14.456 6.48488L16.045 4.90088ZM6 16.4999V14.9149L13.04 7.89688L14.626 9.48288L7.587 16.4999H6ZM4 20.4999H20V22.4999H4V20.4999Z" fill="#696CFF"/>
</svg>
