<svg xmlns="http://www.w3.org/2000/svg" width="27" height="27" viewBox="0 0 27 27" fill="none">
  <path d="M21.4256 8.32613C21.8509 7.90088 22.0849 7.33613 22.0849 6.73538C22.0849 6.13463 21.8509 5.56988 21.4256 5.14463L19.6414 3.36038C19.2161 2.93513 18.6514 2.70113 18.0506 2.70113C17.4499 2.70113 16.8851 2.93513 16.461 3.35925L4.5 15.2831V20.25H9.46463L21.4256 8.32613ZM18.0506 4.95113L19.836 6.73425L18.0472 8.51625L16.263 6.73313L18.0506 4.95113ZM6.75 18V16.2169L14.67 8.32163L16.4543 10.1059L8.53537 18H6.75ZM4.5 22.5H22.5V24.75H4.5V22.5Z" fill="#696CFF"/>
</svg>