<svg width="20" height="20" viewBox="0 0 20 20" fill="none" xmlns="http://www.w3.org/2000/svg">
<rect x="2" y="2" width="16" height="16" rx="8" fill="#FF3E1D"/>
<rect x="1.14286" y="1.14286" width="17.7143" height="17.7143" rx="8.85714" stroke="#FF3E1D" stroke-opacity="0.4" stroke-width="1.71429"/>
<path d="M9.4762 7.38086H10.5238V11.0475H9.4762V7.38086ZM9.4762 11.5713H10.5238V12.619H9.4762V11.5713Z" fill="white"/>
<path d="M15.0846 7.53437L12.4656 4.91532C12.417 4.86658 12.3593 4.82793 12.2957 4.80159C12.2322 4.77525 12.164 4.76174 12.0952 4.76184H7.90476C7.83596 4.76174 7.76782 4.77525 7.70426 4.80159C7.64071 4.82793 7.58299 4.86658 7.53443 4.91532L4.91538 7.53437C4.86664 7.58293 4.82799 7.64065 4.80165 7.7042C4.77531 7.76776 4.7618 7.8359 4.7619 7.9047V12.0952C4.7619 12.2345 4.8169 12.3676 4.91538 12.4655L7.53443 15.0846C7.58299 15.1333 7.64071 15.1719 7.70426 15.1983C7.76782 15.2246 7.83596 15.2381 7.90476 15.238H12.0952C12.2346 15.238 12.3676 15.183 12.4656 15.0846L15.0846 12.4655C15.1334 12.4169 15.172 12.3592 15.1983 12.2957C15.2247 12.2321 15.2382 12.164 15.2381 12.0952V7.9047C15.2382 7.8359 15.2247 7.76776 15.1983 7.7042C15.172 7.64065 15.1334 7.58293 15.0846 7.53437ZM14.1905 11.8783L11.8784 14.1904H8.12162L5.80952 11.8783V8.12156L8.12162 5.80946H11.8784L14.1905 8.12156V11.8783Z" fill="white"/>
</svg>
