<svg width="80" height="80" viewBox="0 0 80 80" fill="none" xmlns="http://www.w3.org/2000/svg">
<rect width="80" height="80" rx="8.57143" fill="#F0FCEA"/>
<path d="M40 25.7148C28.1666 25.7148 16.1904 29.3958 16.1904 36.4291V45.9529C16.1904 52.9863 28.1666 56.6672 40 56.6672C51.8333 56.6672 63.8095 52.9863 63.8095 45.9529V36.4291C63.8095 29.3958 51.8333 25.7148 40 25.7148ZM20.9523 45.9529V43.1029C22.4603 43.9569 24.0571 44.6435 25.7142 45.1506V49.6291C22.5904 48.4053 20.9523 46.9482 20.9523 45.9529ZM49.5238 46.3053V50.9982C47.4595 51.4244 45.0785 51.7363 42.3809 51.8506V47.0887C44.7771 46.9932 47.1638 46.7315 49.5238 46.3053ZM37.619 51.8529C35.219 51.761 32.8304 51.476 30.4761 51.0006V46.3077C32.7595 46.722 35.1714 46.991 37.619 47.0934V51.8529ZM54.2857 49.6291V45.1506C55.9432 44.6446 57.5401 43.9579 59.0476 43.1029V45.9529C59.0476 46.9482 57.4119 48.4053 54.2857 49.6291ZM40 42.3815C27.6738 42.3815 20.9523 38.4506 20.9523 36.4291C20.9523 34.4077 27.6738 30.4767 40 30.4767C52.3261 30.4767 59.0476 34.4077 59.0476 36.4291C59.0476 38.4506 52.3261 42.3815 40 42.3815Z" fill="#82E14F"/>
</svg>
