<svg width="56" height="56" viewBox="0 0 56 56" fill="none" xmlns="http://www.w3.org/2000/svg">
<rect width="56" height="56" rx="6" fill="#F0FCEA"/>
<path d="M27.9999 18C19.7166 18 11.3333 20.5767 11.3333 25.5V32.1667C11.3333 37.09 19.7166 39.6667 27.9999 39.6667C36.2833 39.6667 44.6666 37.09 44.6666 32.1667V25.5C44.6666 20.5767 36.2833 18 27.9999 18ZM14.6666 32.1667V30.1717C15.7222 30.7695 16.8399 31.2501 17.9999 31.605V34.74C15.8133 33.8833 14.6666 32.8633 14.6666 32.1667ZM34.6666 32.4133V35.6983C33.2216 35.9967 31.5549 36.215 29.6666 36.295V32.9617C31.3439 32.8949 33.0146 32.7117 34.6666 32.4133ZM26.3333 36.2967C24.6533 36.2323 22.9812 36.0328 21.3333 35.7V32.415C22.9316 32.705 24.6199 32.8933 26.3333 32.965V36.2967ZM37.9999 34.74V31.605C39.1602 31.2508 40.278 30.7702 41.3333 30.1717V32.1667C41.3333 32.8633 40.1883 33.8833 37.9999 34.74ZM27.9999 29.6667C19.3716 29.6667 14.6666 26.915 14.6666 25.5C14.6666 24.085 19.3716 21.3333 27.9999 21.3333C36.6283 21.3333 41.3333 24.085 41.3333 25.5C41.3333 26.915 36.6283 29.6667 27.9999 29.6667Z" fill="#82E14F"/>
</svg>
