<svg width="88" height="88" viewBox="0 0 88 88" fill="none" xmlns="http://www.w3.org/2000/svg">
<rect width="88" height="88" rx="9.42857" fill="#F0FCEA"/>
<path d="M43.9999 17.3359C29.2959 17.3359 17.3333 29.2986 17.3333 44.0026C17.3333 58.7066 29.2959 70.6693 43.9999 70.6693C58.7039 70.6693 70.6666 58.7066 70.6666 44.0026C70.6666 29.2986 58.7039 17.3359 43.9999 17.3359ZM43.9999 65.3359C32.2373 65.3359 22.6666 55.7653 22.6666 44.0026C22.6666 32.2399 32.2373 22.6693 43.9999 22.6693C55.7626 22.6693 65.3333 32.2399 65.3333 44.0026C65.3333 55.7653 55.7626 65.3359 43.9999 65.3359Z" fill="#82E14F"/>
<path d="M46.6661 30.666H41.3328V46.666H57.3328V41.3327H46.6661V30.666Z" fill="#82E14F"/>
</svg>
