<svg width="56" height="56" viewBox="0 0 56 56" fill="none" xmlns="http://www.w3.org/2000/svg">
<rect width="56" height="56" rx="6" fill="#F3F3FF"/>
<path d="M33.9434 26.368C35.6847 25.3341 37.1276 23.8657 38.1309 22.1066C39.1341 20.3476 39.6634 18.3581 39.6667 16.333V14.6663H41.3334V11.333H14.6667V14.6663H16.3334V16.333C16.3368 18.3581 16.866 20.3476 17.8693 22.1066C18.8726 23.8657 20.3155 25.3341 22.0567 26.368C22.6467 26.7147 23.0001 27.2763 23.0001 27.868V28.1313C23.0001 28.7213 22.6467 29.2813 22.0567 29.6313C20.3155 30.6652 18.8726 32.1336 17.8693 33.8927C16.866 35.6518 16.3368 37.6413 16.3334 39.6663V41.333H14.6667V44.6663H41.3334V41.333H39.6667V39.6663C39.6636 37.6416 39.1346 35.6525 38.1316 33.8937C37.1286 32.1349 35.686 30.6667 33.9451 29.633C33.3534 29.283 33.0001 28.7213 33.0001 28.1313V27.868C33.0001 27.2763 33.3534 26.7147 33.9434 26.368ZM32.2517 32.503C33.494 33.2415 34.5233 34.2899 35.2388 35.5455C35.9543 36.8012 36.3314 38.2211 36.3334 39.6663V41.333H19.6667V39.6663C19.6689 38.2208 20.0464 36.8005 20.7621 35.5446C21.4779 34.2886 22.5075 33.24 23.7501 32.5013C25.3684 31.5463 26.3334 29.9113 26.3334 28.1313V27.868C26.3334 26.0863 25.3667 24.4497 23.7484 23.4963C22.5061 22.7579 21.4769 21.7095 20.7614 20.4538C20.0459 19.1981 19.6687 17.7782 19.6667 16.333V14.6663H36.3334V16.333C36.3334 19.2663 34.7701 22.0097 32.2517 23.4963C30.6334 24.4497 29.6667 26.0863 29.6667 27.868V28.1313C29.6667 29.9113 30.6317 31.5463 32.2517 32.503Z" fill="#696CFF"/>
</svg>
