<svg width="88" height="88" viewBox="0 0 88 88" fill="none" xmlns="http://www.w3.org/2000/svg">
<rect width="88" height="88" rx="9.42857" fill="#F3F3FF"/>
<path d="M53.5094 41.389C56.2954 39.7348 58.6041 37.3854 60.2093 34.5708C61.8146 31.7563 62.6613 28.5731 62.6667 25.333V22.6663H65.3334V17.333H22.6667V22.6663H25.3334V25.333C25.3388 28.5731 26.1856 31.7563 27.7908 34.5708C29.3961 37.3854 31.7047 39.7348 34.4907 41.389C35.4347 41.9437 36.0001 42.8423 36.0001 43.789V44.2103C36.0001 45.1543 35.4347 46.0503 34.4907 46.6103C31.7047 48.2646 29.3961 50.614 27.7908 53.4285C26.1856 56.2431 25.3388 59.4262 25.3334 62.6663V65.333H22.6667V70.6663H65.3334V65.333H62.6667V62.6663C62.6617 59.4268 61.8153 56.2442 60.2105 53.4301C58.6057 50.616 56.2976 48.2669 53.5121 46.613C52.5654 46.053 52.0001 45.1543 52.0001 44.2103V43.789C52.0001 42.8423 52.5654 41.9437 53.5094 41.389ZM50.8027 51.205C52.7904 52.3866 54.4372 54.064 55.582 56.0731C56.7268 58.0821 57.3303 60.354 57.3334 62.6663V65.333H30.6667V62.6663C30.6702 60.3534 31.2741 58.081 32.4194 56.0715C33.5646 54.062 35.2119 52.3842 37.2001 51.2023C39.7894 49.6743 41.3334 47.0583 41.3334 44.2103V43.789C41.3334 40.9383 39.7867 38.3197 37.1974 36.7943C35.2098 35.6128 33.5629 33.9354 32.4182 31.9263C31.2734 29.9172 30.6699 27.6453 30.6667 25.333V22.6663H57.3334V25.333C57.3334 30.0263 54.8321 34.4157 50.8027 36.7943C48.2134 38.3197 46.6667 40.9383 46.6667 43.789V44.2103C46.6667 47.0583 48.2107 49.6743 50.8027 51.205Z" fill="#696CFF"/>
</svg>
