<svg width="56" height="56" viewBox="0 0 56 56" fill="none" xmlns="http://www.w3.org/2000/svg">
<path d="M46.6667 9.33301H9.33341C6.75975 9.33301 4.66675 11.426 4.66675 13.9997V41.9997C4.66675 44.5733 6.75975 46.6663 9.33341 46.6663H46.6667C49.2404 46.6663 51.3334 44.5733 51.3334 41.9997V13.9997C51.3334 11.426 49.2404 9.33301 46.6667 9.33301ZM46.6667 13.9997V15.192L28.0001 29.7123L9.33341 15.1943V13.9997H46.6667ZM9.33341 41.9997V21.1023L26.5674 34.5073C26.976 34.8283 27.4805 35.0027 28.0001 35.0027C28.5196 35.0027 29.0242 34.8283 29.4327 34.5073L46.6667 21.1023L46.6714 41.9997H9.33341Z" fill="#696CFF"/>
</svg>
