<svg width="32" height="32" viewBox="0 0 32 32" fill="none" xmlns="http://www.w3.org/2000/svg">
<g id="boxicon-user2">
<path id="Vector" d="M15.9998 2.66699C12.4776 2.71191 9.11223 4.13109 6.62142 6.62191C4.1306 9.11272 2.71142 12.4781 2.6665 16.0003C2.68297 18.0522 3.1728 20.0726 4.09785 21.9042C5.02291 23.7358 6.35822 25.3292 7.99984 26.5603V26.667H8.13317C10.3907 28.397 13.1556 29.3345 15.9998 29.3345C18.844 29.3345 21.6089 28.397 23.8665 26.667H23.9998V26.5603C25.6415 25.3292 26.9768 23.7358 27.9018 21.9042C28.8269 20.0726 29.3167 18.0522 29.3332 16.0003C29.2883 12.4781 27.8691 9.11272 25.3783 6.62191C22.8874 4.13109 19.5221 2.71191 15.9998 2.66699ZM10.7598 25.2403C10.9545 24.3489 11.448 23.5508 12.1586 22.9785C12.8692 22.4062 13.7541 22.0939 14.6665 22.0937H17.3332C18.2456 22.0939 19.1305 22.4062 19.8411 22.9785C20.5516 23.5508 21.0452 24.3489 21.2398 25.2403C19.6517 26.1747 17.8425 26.6675 15.9998 26.6675C14.1572 26.6675 12.348 26.1747 10.7598 25.2403ZM23.4798 23.5203C22.9727 22.3083 22.1187 21.2731 21.0251 20.5448C19.9315 19.8165 18.6471 19.4276 17.3332 19.427H14.6665C13.3526 19.4276 12.0682 19.8165 10.9746 20.5448C9.88101 21.2731 9.027 22.3083 8.51984 23.5203C7.52072 22.5376 6.72504 21.3677 6.17826 20.0774C5.63147 18.7871 5.34431 17.4017 5.33317 16.0003C5.36775 13.1821 6.50266 10.489 8.4956 8.49609C10.4885 6.50315 13.1816 5.36824 15.9998 5.33366C18.8181 5.36824 21.5111 6.50315 23.5041 8.49609C25.497 10.489 26.6319 13.1821 26.6665 16.0003C26.6554 17.4017 26.3682 18.7871 25.8214 20.0774C25.2746 21.3677 24.479 22.5376 23.4798 23.5203Z" fill="#8E9BAA"/>
<path id="Vector_2" d="M16.0003 8.00044C15.2954 7.98402 14.5945 8.11075 13.94 8.37296C13.2855 8.63517 12.691 9.02742 12.1925 9.52597C11.6939 10.0245 11.3017 10.619 11.0395 11.2735C10.7772 11.928 10.6505 12.6289 10.6669 13.3338C10.6505 14.0386 10.7772 14.7395 11.0395 15.394C11.3017 16.0485 11.6939 16.643 12.1925 17.1416C12.691 17.6401 13.2855 18.0324 13.94 18.2946C14.5945 18.5568 15.2954 18.6835 16.0003 18.6671C16.7051 18.6835 17.406 18.5568 18.0605 18.2946C18.715 18.0324 19.3095 17.6401 19.8081 17.1416C20.3066 16.643 20.6989 16.0485 20.9611 15.394C21.2233 14.7395 21.35 14.0386 21.3336 13.3338C21.35 12.6289 21.2233 11.928 20.9611 11.2735C20.6989 10.619 20.3066 10.0245 19.8081 9.52597C19.3095 9.02742 18.715 8.63517 18.0605 8.37296C17.406 8.11075 16.7051 7.98402 16.0003 8.00044ZM16.0003 16.0004C15.6455 16.0176 15.2911 15.9604 14.9598 15.8324C14.6285 15.7045 14.3277 15.5086 14.0765 15.2575C13.8254 15.0064 13.6296 14.7055 13.5016 14.3742C13.3737 14.0429 13.3165 13.6885 13.3336 13.3338C13.3165 12.979 13.3737 12.6246 13.5016 12.2933C13.6296 11.962 13.8254 11.6612 14.0765 11.41C14.3277 11.1589 14.6285 10.9631 14.9598 10.8351C15.2911 10.7072 15.6455 10.65 16.0003 10.6671C16.355 10.65 16.7094 10.7072 17.0407 10.8351C17.372 10.9631 17.6729 11.1589 17.924 11.41C18.1751 11.6612 18.371 11.962 18.4989 12.2933C18.6269 12.6246 18.6841 12.979 18.6669 13.3338C18.6841 13.6885 18.6269 14.0429 18.4989 14.3742C18.371 14.7055 18.1751 15.0064 17.924 15.2575C17.6729 15.5086 17.372 15.7045 17.0407 15.8324C16.7094 15.9604 16.355 16.0176 16.0003 16.0004Z" fill="#8E9BAA"/>
</g>
</svg>
