<svg width="56" height="56" viewBox="0 0 56 56" fill="none" xmlns="http://www.w3.org/2000/svg">
<path d="M28 4.66699C25.6926 4.66699 23.4369 5.35123 21.5183 6.63318C19.5998 7.91513 18.1044 9.73721 17.2214 11.869C16.3384 14.0008 16.1073 16.3466 16.5575 18.6097C17.0077 20.8728 18.1188 22.9516 19.7504 24.5832C21.382 26.2148 23.4608 27.326 25.7239 27.7762C27.9871 28.2263 30.3328 27.9953 32.4646 27.1123C34.5964 26.2292 36.4185 24.7339 37.7005 22.8153C38.9824 20.8967 39.6667 18.6411 39.6667 16.3337C39.6667 13.2395 38.4375 10.272 36.2496 8.08408C34.0617 5.89616 31.0942 4.66699 28 4.66699ZM28 23.3337C26.6155 23.3337 25.2622 22.9231 24.111 22.1539C22.9599 21.3848 22.0627 20.2915 21.5328 19.0124C21.003 17.7334 20.8644 16.3259 21.1345 14.968C21.4046 13.6102 22.0713 12.3629 23.0503 11.3839C24.0292 10.4049 25.2765 9.73826 26.6344 9.46816C27.9922 9.19807 29.3997 9.33669 30.6788 9.8665C31.9579 10.3963 33.0511 11.2935 33.8203 12.4447C34.5895 13.5958 35 14.9492 35 16.3337C35 18.1902 34.2625 19.9707 32.9497 21.2834C31.637 22.5962 29.8565 23.3337 28 23.3337ZM49 49.0003V46.667C49 42.3351 47.2792 38.1807 44.2161 35.1176C41.153 32.0545 36.9985 30.3337 32.6667 30.3337H23.3333C19.0015 30.3337 14.847 32.0545 11.7839 35.1176C8.72083 38.1807 7 42.3351 7 46.667V49.0003H11.6667V46.667C11.6667 43.5728 12.8958 40.6053 15.0838 38.4174C17.2717 36.2295 20.2391 35.0003 23.3333 35.0003H32.6667C35.7609 35.0003 38.7283 36.2295 40.9162 38.4174C43.1042 40.6053 44.3333 43.5728 44.3333 46.667V49.0003H49Z" fill="#696CFF"/>
</svg>
