<svg width="32" height="32" viewBox="0 0 32 32" fill="none" xmlns="http://www.w3.org/2000/svg">
<path d="M16 2.66699C14.6815 2.66699 13.3925 3.05799 12.2962 3.79053C11.1999 4.52307 10.3454 5.56426 9.8408 6.78244C9.33622 8.00061 9.2042 9.34105 9.46143 10.6343C9.71867 11.9275 10.3536 13.1154 11.286 14.0477C12.2183 14.9801 13.4062 15.615 14.6994 15.8722C15.9926 16.1295 17.333 15.9974 18.5512 15.4929C19.7694 14.9883 20.8106 14.1338 21.5431 13.0375C22.2757 11.9411 22.6667 10.6522 22.6667 9.33366C22.6667 7.56555 21.9643 5.86986 20.714 4.61961C19.4638 3.36937 17.7681 2.66699 16 2.66699ZM16 13.3337C15.2089 13.3337 14.4355 13.0991 13.7777 12.6595C13.1199 12.22 12.6072 11.5953 12.3045 10.8644C12.0017 10.1335 11.9225 9.32922 12.0769 8.5533C12.2312 7.77737 12.6122 7.06464 13.1716 6.50523C13.731 5.94582 14.4437 5.56486 15.2196 5.41052C15.9956 5.25618 16.7998 5.33539 17.5307 5.63814C18.2616 5.94089 18.8864 6.45358 19.3259 7.11138C19.7654 7.76917 20 8.54253 20 9.33366C20 10.3945 19.5786 11.4119 18.8284 12.1621C18.0783 12.9122 17.0609 13.3337 16 13.3337ZM28 28.0003V26.667C28 24.1916 27.0167 21.8177 25.2663 20.0673C23.516 18.317 21.142 17.3337 18.6667 17.3337H13.3333C10.858 17.3337 8.48401 18.317 6.73367 20.0673C4.98333 21.8177 4 24.1916 4 26.667V28.0003H6.66667V26.667C6.66667 24.8989 7.36905 23.2032 8.61929 21.9529C9.86953 20.7027 11.5652 20.0003 13.3333 20.0003H18.6667C20.4348 20.0003 22.1305 20.7027 23.3807 21.9529C24.631 23.2032 25.3333 24.8989 25.3333 26.667V28.0003H28Z" fill="#697A8D"/>
</svg>
