<svg width="57" height="56" viewBox="0 0 57 56" fill="none" xmlns="http://www.w3.org/2000/svg">
<rect x="0.666656" width="56" height="56" rx="6" fill="#E7E7FF"/>
<path d="M36.34 26.4131C37.3551 24.6833 37.7935 22.6753 37.5917 20.6798C37.2933 17.7065 35.6333 15.0781 32.92 13.2798L31.0783 16.0565C32.9433 17.2931 34.0783 19.0548 34.275 21.0131C34.3657 21.9233 34.2524 22.8422 33.9433 23.7031C33.6343 24.564 33.1372 25.3451 32.4883 25.9898L30.5017 27.9765L33.1983 28.7681C40.2517 30.8348 40.3333 37.9281 40.3333 37.9998H43.6667C43.6667 35.0181 42.0733 29.1915 36.34 26.4131Z" fill="#696CFF"/>
<path d="M24.5 27.9998C28.1767 27.9998 31.1667 25.0098 31.1667 21.3332C31.1667 17.6565 28.1767 14.6665 24.5 14.6665C20.8233 14.6665 17.8333 17.6565 17.8333 21.3332C17.8333 25.0098 20.8233 27.9998 24.5 27.9998ZM24.5 17.9998C26.3383 17.9998 27.8333 19.4948 27.8333 21.3332C27.8333 23.1715 26.3383 24.6665 24.5 24.6665C22.6617 24.6665 21.1667 23.1715 21.1667 21.3332C21.1667 19.4948 22.6617 17.9998 24.5 17.9998ZM27 29.6665H22C16.485 29.6665 12 34.1515 12 39.6665V41.3332H15.3333V39.6665C15.3333 35.9898 18.3233 32.9998 22 32.9998H27C30.6767 32.9998 33.6667 35.9898 33.6667 39.6665V41.3332H37V39.6665C37 34.1515 32.515 29.6665 27 29.6665Z" fill="#696CFF"/>
</svg>
