<svg xmlns="http://www.w3.org/2000/svg" width="21" height="20" viewBox="0 0 21 20" fill="none">
<path d="M10.667 5C9.79788 5.0011 8.96466 5.34685 8.35009 5.96142C7.73552 6.57599 7.38977 7.4092 7.38867 8.27833H9.05534C9.05534 7.38917 9.77867 6.66667 10.667 6.66667C11.5553 6.66667 12.2787 7.38917 12.2787 8.27833C12.2787 8.77667 11.8778 9.13833 11.2653 9.63333C11.0652 9.79008 10.8731 9.95668 10.6895 10.1325C9.85784 10.9633 9.83367 11.8458 9.83367 11.9442V12.5H11.5003L11.4995 11.9725C11.5003 11.9592 11.527 11.6508 11.867 11.3117C11.992 11.1867 12.1495 11.0617 12.3128 10.93C12.962 10.4042 13.9445 9.61 13.9445 8.27833C13.9438 7.40921 13.5984 6.57587 12.9839 5.96123C12.3694 5.34659 11.5361 5.00088 10.667 5ZM9.83367 13.3333H11.5003V15H9.83367V13.3333Z" fill="#697A8D"/>
<path d="M10.6673 1.66699C6.07232 1.66699 2.33398 5.40533 2.33398 10.0003C2.33398 14.5953 6.07232 18.3337 10.6673 18.3337C15.2623 18.3337 19.0007 14.5953 19.0007 10.0003C19.0007 5.40533 15.2623 1.66699 10.6673 1.66699ZM10.6673 16.667C6.99148 16.667 4.00065 13.6762 4.00065 10.0003C4.00065 6.32449 6.99148 3.33366 10.6673 3.33366C14.3432 3.33366 17.334 6.32449 17.334 10.0003C17.334 13.6762 14.3432 16.667 10.6673 16.667Z" fill="#697A8D"/>
</svg>