<svg width="32" height="32" viewBox="0 0 32 32" fill="none" xmlns="http://www.w3.org/2000/svg">
<g id="boxicon-search">
<path id="Vector" d="M13.3332 24.0003C15.6998 23.9998 17.9982 23.2076 19.8625 21.7497L25.7238 27.611L27.6092 25.7257L21.7478 19.8643C23.2065 17.9999 23.9993 15.7009 23.9998 13.3337C23.9998 7.45233 19.2145 2.66699 13.3332 2.66699C7.45184 2.66699 2.6665 7.45233 2.6665 13.3337C2.6665 19.215 7.45184 24.0003 13.3332 24.0003ZM13.3332 5.33366C17.7452 5.33366 21.3332 8.92166 21.3332 13.3337C21.3332 17.7457 17.7452 21.3337 13.3332 21.3337C8.92117 21.3337 5.33317 17.7457 5.33317 13.3337C5.33317 8.92166 8.92117 5.33366 13.3332 5.33366Z" fill="#8E9BAA"/>
</g>
</svg>
