<svg width="89" height="88" viewBox="0 0 89 88" fill="none" xmlns="http://www.w3.org/2000/svg">
<rect x="0.5" width="88" height="88" rx="9.42857" fill="#E5F9FD"/>
<path d="M31.1667 41.334H36.5001V46.6673H31.1667V41.334ZM31.1667 52.0007H36.5001V57.334H31.1667V52.0007ZM41.8334 41.334H47.1667V46.6673H41.8334V41.334ZM41.8334 52.0007H47.1667V57.334H41.8334V52.0007ZM52.5001 41.334H57.8334V46.6673H52.5001V41.334ZM52.5001 52.0007H57.8334V57.334H52.5001V52.0007Z" fill="#03C3EC"/>
<path d="M25.8333 70.6673H63.1667C66.108 70.6673 68.5 68.2753 68.5 65.334V28.0007C68.5 25.0593 66.108 22.6673 63.1667 22.6673H57.8333V17.334H52.5V22.6673H36.5V17.334H31.1667V22.6673H25.8333C22.892 22.6673 20.5 25.0593 20.5 28.0007V65.334C20.5 68.2753 22.892 70.6673 25.8333 70.6673ZM63.1667 33.334L63.1693 65.334H25.8333V33.334H63.1667Z" fill="#03C3EC"/>
</svg>
