<svg width="56" height="56" viewBox="0 0 56 56" fill="none" xmlns="http://www.w3.org/2000/svg">
<rect width="56" height="56" rx="6" fill="#FFF2D6"/>
<path d="M37.6882 14.3967C37.3801 13.9651 36.9736 13.6133 36.5022 13.3704C36.0309 13.1274 35.5084 13.0005 34.9782 13H21.0215C19.9482 13 18.9349 13.5217 18.2432 14.4983L11.5765 25.4667C11.3902 25.7727 11.3076 26.1306 11.341 26.4873C11.3743 26.844 11.5218 27.1805 11.7615 27.4467L26.7615 44.1133C26.917 44.2881 27.1077 44.428 27.321 44.5239C27.5344 44.6197 27.7656 44.6693 27.9995 44.6695C28.2334 44.6697 28.4647 44.6203 28.6782 44.5248C28.8917 44.4292 29.0825 44.2896 29.2382 44.115L44.2382 27.4483C44.4784 27.1824 44.6262 26.8459 44.6596 26.4891C44.6929 26.1322 44.61 25.7742 44.4232 25.4683L37.6882 14.3967ZM27.9999 40.5083L16.7415 28H39.2565L27.9999 40.5083ZM15.9615 24.6667L21.0215 16.3333L34.9082 16.23L40.0365 24.6667H15.9615Z" fill="#FFAB00"/>
</svg>
