<svg width="56" height="56" viewBox="0 0 56 56" fill="none" xmlns="http://www.w3.org/2000/svg">
<rect width="56" height="56" rx="6" fill="#E7E7FF"/>
<path d="M34.6652 22.1673H37.9985C37.9985 17.439 33.4069 15.2823 29.6652 14.7857V11.334H26.3319V14.7857C22.5902 15.2823 17.9985 17.439 17.9985 22.1673C17.9985 26.6773 22.4419 29.0223 26.3319 29.5507V37.834C23.9185 37.4156 21.3319 36.1273 21.3319 33.834H17.9985C17.9985 38.149 22.0402 40.699 26.3319 41.2273V44.6673H29.6652V41.2173C33.4069 40.7207 37.9985 38.5623 37.9985 33.834C37.9985 29.1056 33.4069 26.949 29.6652 26.4523V18.1673C31.8819 18.5657 34.6652 19.7357 34.6652 22.1673ZM21.3319 22.1673C21.3319 19.7357 24.1152 18.5657 26.3319 18.1673V26.1657C24.0469 25.744 21.3319 24.4957 21.3319 22.1673ZM34.6652 33.834C34.6652 36.2656 31.8819 37.4356 29.6652 37.834V29.834C31.8819 30.2323 34.6652 31.4023 34.6652 33.834Z" fill="#696CFF"/>
</svg>
