<svg width="57" height="56" viewBox="0 0 57 56" fill="none" xmlns="http://www.w3.org/2000/svg">
<rect x="0.5" width="56" height="56" rx="6" fill="#F3F3FF"/>
<path d="M35.1652 22.1673H38.4985C38.4985 17.439 33.9069 15.2823 30.1652 14.7857V11.334H26.8319V14.7857C23.0902 15.2823 18.4985 17.439 18.4985 22.1673C18.4985 26.6773 22.9419 29.0223 26.8319 29.5507V37.834C24.4185 37.4156 21.8319 36.1273 21.8319 33.834H18.4985C18.4985 38.149 22.5402 40.699 26.8319 41.2273V44.6673H30.1652V41.2173C33.9069 40.7207 38.4985 38.5623 38.4985 33.834C38.4985 29.1056 33.9069 26.949 30.1652 26.4523V18.1673C32.3819 18.5657 35.1652 19.7357 35.1652 22.1673ZM21.8319 22.1673C21.8319 19.7357 24.6152 18.5657 26.8319 18.1673V26.1657C24.5469 25.744 21.8319 24.4957 21.8319 22.1673ZM35.1652 33.834C35.1652 36.2656 32.3819 37.4356 30.1652 37.834V29.834C32.3819 30.2323 35.1652 31.4023 35.1652 33.834Z" fill="#696CFF"/>
</svg>
