<svg width="24" height="24" viewBox="0 0 24 24" fill="none" xmlns="http://www.w3.org/2000/svg">
<path d="M11.001 10H13.001V15H11.001V10ZM11 16H13V18H11V16Z" fill="white"/>
<path d="M13.7679 4.1997C13.4199 3.5447 12.7419 3.1377 11.9999 3.1377C11.2579 3.1377 10.5799 3.5447 10.2319 4.2007L2.89395 18.0637C2.73112 18.3681 2.65046 18.7097 2.65993 19.0549C2.6694 19.4 2.76867 19.7367 2.94795 20.0317C3.12465 20.3281 3.37559 20.5732 3.676 20.743C3.97641 20.9128 4.3159 21.0012 4.66095 20.9997H19.3389C20.0469 20.9997 20.6879 20.6377 21.0529 20.0317C21.2319 19.7365 21.331 19.3999 21.3405 19.0548C21.35 18.7098 21.2695 18.3682 21.1069 18.0637L13.7679 4.1997ZM4.66095 18.9997L11.9999 5.1367L19.3439 18.9997H4.66095Z" fill="white"/>
</svg>
